<svg xmlns="http://www.w3.org/2000/svg" viewBox="0 0 750 500"><g id="freepik--background-complete--inject-61"><g><g><path d="M673.73379,316.3965h-180.7461c-3.2324,0-5.8623-2.6298-5.8623-5.8623V47.2608c0-3.2324,2.6299-5.8617,5.8623-5.8617h180.7461c3.2323,0,5.86221,2.6293,5.86221,5.8617V310.5342c0,3.2325-2.62991,5.8623-5.86221,5.8623ZM492.98769,41.6491c-3.09469,0-5.6123,2.5175-5.6123,5.6117V310.5342c0,3.0948,2.51761,5.6123,5.6123,5.6123h180.7461c3.0946,0,5.61221-2.5175,5.61221-5.6123V47.2608c0-3.0942-2.51761-5.6117-5.61221-5.6117h-180.7461Z" style="fill:#e0e0e0;"></path><path d="M465.30609,316.3965h-180.7466c-3.2324,0-5.8618-2.6298-5.8618-5.8623V47.2608c0-3.2324,2.6294-5.8617,5.8618-5.8617h180.7466c3.2324,0,5.8623,2.6293,5.8623,5.8617V310.5342c0,3.2325-2.6299,5.8623-5.8623,5.8623ZM284.5595,41.6491c-3.0942,0-5.6118,2.5175-5.6118,5.6117V310.5342c0,3.0948,2.5176,5.6123,5.6118,5.6123h180.7466c3.0947,0,5.6123-2.5175,5.6123-5.6123V47.2608c0-3.0942-2.5176-5.6117-5.6123-5.6117h-180.7466Z" style="fill:#e0e0e0;"></path></g><path d="M257.0123,316.3965H76.2658c-3.2324,0-5.8618-2.6298-5.8618-5.8623V47.2608c0-3.2324,2.6294-5.8617,5.8618-5.8617h180.7465c3.2324,0,5.8623,2.6293,5.8623,5.8617V310.5342c0,3.2325-2.6299,5.8623-5.8623,5.8623ZM76.2658,41.6491c-3.0942,0-5.6118,2.5175-5.6118,5.6117V310.5342c0,3.0948,2.5176,5.6123,5.6118,5.6123h180.7465c3.0948,0,5.6123-2.5175,5.6123-5.6123V47.2608c0-3.0942-2.5175-5.6117-5.6123-5.6117H76.2658Z" style="fill:#e0e0e0;"></path><g><rect y="387.079" width="750" height=".1204" style="fill:#e0e0e0;"></rect><rect x="653.62639" y="416.455" width="55.7291" height=".4206" style="fill:#ebebeb;"></rect><rect x="495.04359" y="421.0208" width="14.6268" height=".4205" style="fill:#ebebeb;"></rect><rect x="40.6445" y="403.6578" width="72.6745" height=".4206" style="fill:#ebebeb;"></rect><rect x="128.2991" y="403.6578" width="10.6555" height=".4206" style="fill:#ebebeb;"></rect><rect x="173.5856" y="410.7619" width="157.61289" height=".4205" style="fill:#ebebeb;"></rect></g></g><g id="freepik--freepik--background-complete--inject-136--inject-61"><rect x="27.0784" y="278.134" width="456.88999" height="110.1147" style="fill:#e6e6e6;"></rect><polygon points="472.26839 254.7143 38.7684 254.7143 34.8484 278.134 476.18839 278.134 472.26839 254.7143" style="fill:#f0f0f0;"></polygon><polygon points="474.04839 254.2757 36.9884 254.2757 36.1584 259.2274 474.88839 259.2274 474.04839 254.2757" style="fill:#f5f5f5;"></polygon><polygon points="468.41839 231.6871 42.6184 231.6871 38.8484 254.2757 472.19839 254.2757 468.41839 231.6871" style="fill:#f0f0f0;"></polygon><polygon points="470.16839 231.26 40.8684 231.26 40.0684 236.0386 470.96839 236.0386 470.16839 231.26" style="fill:#f5f5f5;"></polygon><polygon points="464.69839 209.4565 46.3384 209.4565 42.6984 231.26 468.33839 231.26 464.69839 209.4565" style="fill:#f0f0f0;"></polygon><polygon points="466.41839 209.0408 44.6184 209.0408 43.8384 213.6578 467.19839 213.6578 466.41839 209.0408" style="fill:#f5f5f5;"></polygon><polygon points="461.10839 187.9991 49.9284 187.9991 46.4084 209.0408 464.62839 209.0408 461.10839 187.9991" style="fill:#f0f0f0;"></polygon><polygon points="462.75839 187.3411 48.2784 187.3411 47.5284 191.7964 463.50839 191.7964 462.75839 187.3411" style="fill:#f5f5f5;"></polygon><polygon points="457.59839 167.0034 53.4384 167.0034 50.0384 187.3411 460.99839 187.3411 457.59839 167.0034" style="fill:#f0f0f0;"></polygon><polygon points="459.25839 166.6224 51.7784 166.6224 51.0484 170.9277 459.98839 170.9277 459.25839 166.6224" style="fill:#f5f5f5;"></polygon><polygon points="454.23839 146.9657 56.7984 146.9657 53.5084 166.6224 457.52839 166.6224 454.23839 146.9657" style="fill:#f0f0f0;"></polygon><polygon points="455.87839 146.5847 55.1584 146.5847 54.4584 150.7515 456.57839 150.7515 455.87839 146.5847" style="fill:#f5f5f5;"></polygon><polygon points="450.99839 127.5743 60.0384 127.5743 56.8584 146.5847 454.17839 146.5847 450.99839 127.5743" style="fill:#f0f0f0;"></polygon><polygon points="452.60839 127.2166 58.4284 127.2166 57.7484 131.2449 453.28839 131.2449 452.60839 127.2166" style="fill:#f5f5f5;"></polygon><polygon points="447.85839 108.8179 63.1784 108.8179 60.0984 127.2166 450.93839 127.2166 447.85839 108.8179" style="fill:#f0f0f0;"></polygon><polygon points="449.40839 108.2293 61.6284 108.2293 60.9684 112.1305 450.06839 112.1305 449.40839 108.2293" style="fill:#f5f5f5;"></polygon><rect x="54.5184" y="298.1369" width="193.72" height="90.1118" style="fill:#e0e0e0;"></rect><path d="M91.0289,65.1846c-.2787,3.2979-2.6955,5.8355-5.62,5.9008-2.6174,.0523-4.7766-2.3087-4.8227-5.2732-.0032-.2095,.0043-.419,.0227-.6276,.2792-3.3083,2.7062-5.8524,5.64-5.9123,2.6232-.0332,4.7736,2.3482,4.8031,5.3192,.0019,.198-.0058,.3961-.0231,.5931Z" style="fill:#f5f5f5;"></path><path d="M103.4089,65.1846c-.2752,3.3088-2.706,5.8519-5.64,5.9008-2.6119,.0529-4.767-2.3023-4.8137-5.2606-.0034-.2137,.0045-.4275,.0237-.6402,.2749-3.3108,2.7044-5.8575,5.64-5.9123,2.6175-.0465,4.7728,2.3191,4.8139,5.2837,.0029,.2098-.0051,.4198-.0239,.6286Z" style="fill:#f5f5f5;"></path><path d="M115.73891,65.1846c-.2752,3.3088-2.70601,5.8519-5.64001,5.9008-2.6119,.0529-4.767-2.3023-4.8137-5.2606-.0034-.2137,.0045-.4275,.0237-.6402,.2749-3.3108,2.7044-5.8575,5.64-5.9123,2.6175-.0465,4.77281,2.3191,4.81391,5.2837,.0029,.2098-.0051,.4198-.0239,.6286Z" style="fill:#f5f5f5;"></path><path d="M128.09891,65.1846c-.2752,3.3088-2.706,5.8519-5.64,5.9008-2.6119,.0529-4.767-2.3023-4.8137-5.2606-.0034-.2137,.0045-.4275,.0237-.6402,.2701-3.309,2.6964-5.857,5.63-5.9123,2.6174-.0527,4.7771,2.3076,4.8237,5.2721,.0034,.2137-.0045,.4276-.0237,.6402Z" style="fill:#f5f5f5;"></path><path d="M140.4589,65.1846c-.2796,3.3063-2.7078,5.8468-5.63999,5.9008-2.61739,.0523-4.7766-2.3087-4.8227-5.2732-.0032-.2095,.00431-.419,.0227-.6276,.2792-3.3083,2.7062-5.8524,5.63999-5.9123,2.6231-.0458,4.7823,2.3254,4.8228,5.2962,.0028,.2057-.0048,.4114-.0228,.6161Z" style="fill:#f5f5f5;"></path><path d="M152.8089,65.1846c-.2752,3.3088-2.706,5.8519-5.64,5.9008-2.6119,.0529-4.7671-2.3023-4.8137-5.2606-.0034-.2137,.0045-.4275,.0237-.6402,.2749-3.3108,2.7044-5.8575,5.64-5.9123,2.6175-.0465,4.7728,2.3191,4.8139,5.2837,.0029,.2098-.0051,.4198-.0239,.6286Z" style="fill:#f5f5f5;"></path><path d="M90.0789,78.3908c-.2761,3.3235-2.7228,5.8747-5.67,5.9122-2.6119,.0535-4.7675-2.3013-4.8147-5.2595-.0035-.2179,.0048-.4359,.0247-.6527,.2753-3.3087,2.7061-5.852,5.64-5.9009,2.6116-.0716,4.7799,2.268,4.8432,5.2259,.0048,.2253-.0029,.4508-.0232,.675Z" style="fill:#f5f5f5;"></path><path d="M102.4089,78.3908c-.2748,3.3108-2.7043,5.8576-5.64,5.9122-2.6174,.0529-4.777-2.3075-4.8237-5.2721-.0033-.2137,.0046-.4274,.0237-.6401,.2797-3.3062,2.7079-5.8468,5.64-5.9009,2.6174-.0521,4.7766,2.3087,4.8227,5.2733,.0033,.2095-.0043,.419-.0227,.6276Z" style="fill:#f5f5f5;"></path><path d="M114.7989,78.3908c-.2748,3.3108-2.7043,5.8576-5.64,5.9122-2.6174,.0529-4.777-2.3075-4.8237-5.2721-.0033-.2137,.0046-.4274,.0237-.6401,.2797-3.3062,2.7079-5.8468,5.64-5.9009,2.6174-.0521,4.7766,2.3087,4.8227,5.2733,.0033,.2095-.0043,.419-.0227,.6276Z" style="fill:#f5f5f5;"></path><path d="M127.14891,78.3908c-.2748,3.3108-2.70439,5.8576-5.64,5.9122-2.6175,.0465-4.7727-2.3189-4.8138-5.2835-.0029-.21,.005-.4199,.0238-.6287,.2753-3.3087,2.7061-5.852,5.64-5.9009,2.6119-.0528,4.7671,2.3024,4.8138,5.2607,.0033,.2137-.0046,.4276-.0238,.6402Z" style="fill:#f5f5f5;"></path><path d="M139.5089,78.3908c-.2748,3.3108-2.7043,5.8576-5.63999,5.9122-2.6118,.0535-4.7675-2.3013-4.8147-5.2595-.0035-.2179,.0048-.4359,.0247-.6527,.2753-3.3087,2.7061-5.852,5.64-5.9009,2.61189-.0528,4.76709,2.3024,4.81379,5.2607,.0033,.2137-.0046,.4276-.0238,.6402Z" style="fill:#f5f5f5;"></path><path d="M151.8689,78.3908c-.2748,3.3108-2.7043,5.8576-5.64,5.9122-2.6174,.0529-4.777-2.3075-4.8237-5.2721-.0033-.2137,.0046-.4274,.0237-.6401,.2797-3.3062,2.7079-5.8468,5.64-5.9009,2.6174-.0521,4.7767,2.3087,4.8227,5.2733,.0033,.2095-.0043,.419-.0227,.6276Z" style="fill:#f5f5f5;"></path><path d="M89.1289,91.6536c-.2748,3.3108-2.7043,5.8576-5.64,5.9122-2.6175,.0466-4.7727-2.3189-4.8138-5.2835-.0029-.21,.005-.4199,.0238-.6287,.2749-3.3107,2.7044-5.8575,5.64-5.9122,2.6175-.0466,4.7728,2.319,4.8139,5.2836,.0029,.2099-.0051,.4198-.0239,.6286Z" style="fill:#f5f5f5;"></path><path d="M101.4889,91.6536c-.2748,3.3108-2.7043,5.8576-5.64,5.9122-2.6175,.0466-4.7727-2.3189-4.8138-5.2835-.0029-.21,.005-.4199,.0238-.6287,.2749-3.3107,2.7044-5.8575,5.64-5.9122,2.6175-.0466,4.7728,2.319,4.8139,5.2836,.0029,.2099-.0051,.4198-.0239,.6286Z" style="fill:#f5f5f5;"></path><path d="M113.8489,91.6536c-.2748,3.3108-2.7043,5.8576-5.64,5.9122-2.6174,.0529-4.777-2.3075-4.8237-5.2721-.0033-.2137,.0046-.4274,.0237-.6401,.2749-3.3107,2.7044-5.8575,5.64-5.9122,2.6174-.0528,4.7771,2.3075,4.8237,5.272,.0034,.2137-.0045,.4276-.0237,.6402Z" style="fill:#f5f5f5;"></path><path d="M126.20891,91.6536c-.2792,3.3083-2.7062,5.8524-5.64,5.9122-2.623,.046-4.7822-2.3253-4.8228-5.2961-.0028-.2057,.0048-.4113,.0228-.6161,.2792-3.3083,2.7062-5.8524,5.64-5.9122,2.6231-.0459,4.7823,2.3253,4.8228,5.2962,.00281,.2056-.0048,.4113-.0228,.616Z" style="fill:#f5f5f5;"></path><path d="M138.5689,91.6536c-.2792,3.3083-2.7062,5.8524-5.63999,5.9122-2.61739,.0529-4.777-2.3075-4.8237-5.2721-.0033-.2137,.0046-.4274,.0237-.6401,.2749-3.3107,2.7044-5.8575,5.64-5.9122,2.62309-.0459,4.78229,2.3253,4.82279,5.2962,.0028,.2056-.0048,.4113-.0228,.616Z" style="fill:#f5f5f5;"></path><path d="M150.9189,91.6536c-.2748,3.3108-2.7044,5.8576-5.64,5.9122-2.6175,.0466-4.7727-2.3189-4.8138-5.2835-.0029-.21,.005-.4199,.0238-.6287,.2749-3.3107,2.7044-5.8575,5.64-5.9122,2.6175-.0466,4.7728,2.319,4.8139,5.2836,.0029,.21-.0051,.4198-.0239,.6286Z" style="fill:#f5f5f5;"></path><path d="M416.66339,61.3567c.2797,3.3063,2.7079,5.8468,5.64,5.9009,2.6175,.0522,4.77661-2.3087,4.8227-5.2732,.0033-.2096-.0043-.4191-.0227-.6277-.2792-3.3082-2.7062-5.8524-5.64-5.9122-2.623-.0459-4.7823,2.3253-4.8228,5.2962-.0028,.2056,.0048,.4113,.0228,.616Z" style="fill:#f5f5f5;"></path><path d="M404.28339,61.3567c.2753,3.3088,2.7061,5.8519,5.64,5.9009,2.6119,.0529,4.7671-2.3024,4.8138-5.2607,.0033-.2137-.0046-.4275-.0238-.6402-.2748-3.3107-2.7043-5.8575-5.64-5.9122-2.6175-.0466-4.7727,2.319-4.8138,5.2836-.0029,.2099,.005,.4198,.0238,.6286Z" style="fill:#f5f5f5;"></path><path d="M391.95339,61.3567c.2753,3.3088,2.7061,5.8519,5.64,5.9009,2.6119,.0529,4.7671-2.3024,4.8138-5.2607,.0034-.2137-.0046-.4275-.0237-.6402-.2749-3.3107-2.7044-5.8575-5.6401-5.9122-2.6175-.0466-4.7727,2.319-4.8138,5.2836-.0029,.2099,.005,.4198,.0238,.6286Z" style="fill:#f5f5f5;"></path><path d="M379.59339,61.3567c.2753,3.3088,2.7061,5.8519,5.64,5.9009,2.6175,.0522,4.77661-2.3087,4.8227-5.2732,.0033-.2096-.0043-.4191-.0227-.6277-.2792-3.3082-2.7062-5.8524-5.64-5.9122-2.61739-.0528-4.777,2.3076-4.8237,5.272-.0033,.2138,.0046,.4276,.0237,.6402Z" style="fill:#f5f5f5;"></path><path d="M367.28339,61.3567c.27961,3.3063,2.7079,5.8468,5.64,5.9009,2.6175,.0522,4.77661-2.3087,4.8227-5.2732,.0033-.2096-.0043-.4191-.0227-.6277-.2792-3.3082-2.7062-5.8524-5.64-5.9122-2.623-.0459-4.7823,2.3253-4.8228,5.2962-.0028,.2056,.0048,.4113,.0228,.616Z" style="fill:#f5f5f5;"></path><path d="M354.88339,61.3567c.2753,3.3088,2.7061,5.8519,5.64,5.9009,2.6119,.0529,4.7671-2.3024,4.8138-5.2607,.0033-.2137-.0046-.4275-.0238-.6402-.2748-3.3107-2.7043-5.8575-5.64-5.9122-2.6175-.0466-4.7727,2.319-4.8138,5.2836-.0029,.2099,.005,.4198,.0238,.6286Z" style="fill:#f5f5f5;"></path><path d="M417.61339,74.5629c.2749,3.3108,2.7044,5.8576,5.64,5.9122,2.6119,.0536,4.7675-2.3012,4.8148-5.2595,.0035-.2179-.0048-.4359-.0248-.6527-.2752-3.3087-2.706-5.852-5.64-5.9009-2.6119-.0528-4.7671,2.3025-4.8137,5.2607-.0034,.2138,.0045,.4276,.0237,.6402Z" style="fill:#f5f5f5;"></path><path d="M405.28339,74.5629c.2749,3.3108,2.7044,5.8576,5.64,5.9122,2.6174,.0529,4.7771-2.3076,4.8237-5.2721,.0034-.2137-.0045-.4274-.0237-.6401-.2796-3.3063-2.7078-5.8468-5.64-5.9009-2.61739-.0521-4.7766,2.3088-4.8227,5.2733-.0033,.2095,.00431,.4191,.0227,.6276Z" style="fill:#f5f5f5;"></path><path d="M392.89339,74.5629c.2749,3.3108,2.7044,5.8576,5.64,5.9122,2.6174,.0529,4.7771-2.3076,4.8237-5.2721,.0033-.2137-.0046-.4274-.0237-.6401-.2796-3.3063-2.7079-5.8468-5.64-5.9009-2.61739-.0521-4.7766,2.3088-4.8227,5.2733-.0033,.2095,.00431,.4191,.0227,.6276Z" style="fill:#f5f5f5;"></path><path d="M380.54339,74.5629c.2749,3.3108,2.7044,5.8576,5.64,5.9122,2.6175,.0465,4.7728-2.3189,4.8139-5.2835,.0029-.21-.0051-.4199-.0239-.6287-.2752-3.3087-2.706-5.852-5.64-5.9009-2.6118-.0528-4.7671,2.3025-4.8137,5.2607-.0034,.2138,.0045,.4276,.0237,.6402Z" style="fill:#f5f5f5;"></path><path d="M368.18339,74.5629c.2749,3.3108,2.7044,5.8576,5.64,5.9122,2.6119,.0536,4.7675-2.3012,4.8148-5.2595,.0035-.2179-.0048-.4359-.0248-.6527-.2752-3.3087-2.706-5.852-5.64-5.9009-2.6119-.0528-4.7671,2.3025-4.8137,5.2607-.0034,.2138,.0045,.4276,.0237,.6402Z" style="fill:#f5f5f5;"></path><path d="M355.82339,74.5629c.2749,3.3108,2.7044,5.8576,5.64,5.9122,2.6174,.0529,4.7771-2.3076,4.8237-5.2721,.0034-.2137-.0045-.4274-.0237-.6401-.2796-3.3063-2.7078-5.8468-5.64-5.9009-2.61739-.0521-4.7766,2.3088-4.8227,5.2733-.0032,.2095,.0044,.4191,.0227,.6276Z" style="fill:#f5f5f5;"></path><path d="M418.56339,87.8257c.2749,3.3108,2.7044,5.8576,5.64,5.9122,2.6175,.0466,4.7728-2.3189,4.8139-5.2835,.0029-.21-.0051-.4198-.0239-.6287-.2748-3.3107-2.7043-5.8575-5.64-5.9122-2.6175-.0466-4.7727,2.319-4.8138,5.2836-.0029,.2099,.005,.4198,.0238,.6286Z" style="fill:#f5f5f5;"></path><path d="M406.20339,87.8257c.2749,3.3108,2.7044,5.8576,5.64,5.9122,2.6175,.0466,4.7728-2.3189,4.8139-5.2835,.0029-.21-.005-.4198-.0238-.6287-.2749-3.3107-2.7044-5.8575-5.6401-5.9122-2.6175-.0466-4.7727,2.319-4.8138,5.2836-.0029,.2099,.005,.4198,.0238,.6286Z" style="fill:#f5f5f5;"></path><path d="M393.84339,87.8257c.2749,3.3108,2.7044,5.8576,5.64,5.9122,2.6174,.0529,4.7771-2.3076,4.8237-5.272,.0034-.2138-.0045-.4275-.0237-.6402-.2748-3.3107-2.70439-5.8575-5.64-5.9122-2.61739-.0528-4.777,2.3076-4.8237,5.2721-.0033,.2138,.0046,.4275,.0237,.6401Z" style="fill:#f5f5f5;"></path><path d="M381.48339,87.8257c.2793,3.3083,2.7062,5.8525,5.64,5.9122,2.6231,.0459,4.7823-2.3252,4.8228-5.2962,.00281-.2055-.0048-.4112-.0228-.616-.2792-3.3082-2.7062-5.8524-5.64-5.9122-2.623-.0459-4.7823,2.3254-4.8228,5.2962-.0028,.2057,.0048,.4113,.0228,.616Z" style="fill:#f5f5f5;"></path><path d="M369.12339,87.8257c.2792,3.3083,2.7062,5.8525,5.64,5.9122,2.6174,.0529,4.7771-2.3076,4.8237-5.272,.0034-.2138-.0045-.4275-.0237-.6402-.2748-3.3107-2.70439-5.8575-5.64-5.9122-2.623-.0459-4.7823,2.3254-4.8228,5.2962-.0028,.2057,.0048,.4113,.0228,.616Z" style="fill:#f5f5f5;"></path><path d="M356.77339,87.8257c.2748,3.3108,2.7044,5.8576,5.64,5.9122,2.6175,.0466,4.7728-2.3189,4.8139-5.2835,.0029-.21-.0051-.4198-.0239-.6287-.2748-3.3107-2.7043-5.8575-5.64-5.9122-2.6175-.0466-4.7727,2.319-4.8138,5.2836-.003,.2099,.005,.4198,.0238,.6286Z" style="fill:#f5f5f5;"></path><polygon points="34.5137 388.5373 148.0875 278.2679 204.5752 277.3522 89.7202 388.2487 34.5137 388.5373" style="fill:#f5f5f5;"></polygon><polygon points="273.7905 388.5373 387.36439 278.2679 443.85209 277.3522 328.997 388.2487 273.7905 388.5373" style="fill:#f5f5f5;"></polygon><polygon points="109.6629 388.5373 223.2367 278.2679 240.0971 277.3522 127.89711 388.2487 109.6629 388.5373" style="fill:#f5f5f5;"></polygon></g><g id="freepik--freepik--background-complete--inject-136-2--inject-61"><rect x="266.0316" y="277.9017" width="456.88999" height="110.3464" style="fill:#e6e6e6;"></rect><polygon points="711.22159 254.4327 277.7216 254.4327 273.8016 277.9017 715.14159 277.9017 711.22159 254.4327" style="fill:#f0f0f0;"></polygon><polygon points="713.00159 253.9932 275.9416 253.9932 275.1116 258.9553 713.84159 258.9553 713.00159 253.9932" style="fill:#f5f5f5;"></polygon><polygon points="707.37159 231.3571 281.5716 231.3571 277.8016 253.9932 711.15159 253.9932 707.37159 231.3571" style="fill:#f0f0f0;"></polygon><polygon points="709.12159 230.9291 279.8216 230.9291 279.0216 235.7177 709.92159 235.7177 709.12159 230.9291" style="fill:#f5f5f5;"></polygon><polygon points="703.65159 209.0797 285.2916 209.0797 281.6516 230.9291 707.29159 230.9291 703.65159 209.0797" style="fill:#f0f0f0;"></polygon><polygon points="705.37159 208.6632 283.5716 208.6632 282.7916 213.2899 706.15159 213.2899 705.37159 208.6632" style="fill:#f5f5f5;"></polygon><polygon points="700.06159 187.5771 288.8816 187.5771 285.3616 208.6632 703.58159 208.6632 700.06159 187.5771" style="fill:#f0f0f0;"></polygon><polygon points="701.71159 186.9177 287.2316 186.9177 286.4816 191.3825 702.46159 191.3825 701.71159 186.9177" style="fill:#f5f5f5;"></polygon><polygon points="696.55159 166.5373 292.3916 166.5373 288.9916 186.9177 699.95159 186.9177 696.55159 166.5373" style="fill:#f0f0f0;"></polygon><polygon points="698.21159 166.1555 290.7316 166.1555 290.0016 170.4698 698.94159 170.4698 698.21159 166.1555" style="fill:#f5f5f5;"></polygon><polygon points="693.19159 146.4574 295.7516 146.4574 292.4616 166.1555 696.48159 166.1555 693.19159 146.4574" style="fill:#f0f0f0;"></polygon><polygon points="694.83159 146.0756 294.1116 146.0756 293.4116 150.2512 695.53159 150.2512 694.83159 146.0756" style="fill:#f5f5f5;"></polygon><polygon points="689.95159 127.0252 298.9916 127.0252 295.8116 146.0756 693.13159 146.0756 689.95159 127.0252" style="fill:#f0f0f0;"></polygon><polygon points="691.56159 126.6668 297.3816 126.6668 296.7016 130.7036 692.24159 130.7036 691.56159 126.6668" style="fill:#f5f5f5;"></polygon><polygon points="686.81159 108.2293 302.1316 108.2293 299.0516 126.6668 689.89159 126.6668 686.81159 108.2293" style="fill:#f0f0f0;"></polygon><polygon points="688.36159 107.6395 300.5816 107.6395 299.9216 111.549 689.02159 111.549 688.36159 107.6395" style="fill:#f5f5f5;"></polygon><rect x="279.0216" y="297.9467" width="193.72" height="90.3014" style="fill:#e0e0e0;"></rect><rect x="499.22159" y="297.9467" width="193.72" height="90.3014" style="fill:#e0e0e0;"></rect><path d="M655.61659,59.2545c.2797,3.3063,2.7079,5.8469,5.64,5.9009,2.6175,.0522,4.7766-2.3087,4.8227-5.2732,.0033-.2095-.00429-.4191-.0227-.6277-.2792-3.3082-2.7062-5.8524-5.64-5.9122-2.623-.0459-4.7823,2.3254-4.8228,5.2962-.00279,.2057,.0048,.4114,.0228,.616Z" style="fill:#f5f5f5;"></path><path d="M643.23659,59.2545c.2753,3.3088,2.7061,5.852,5.64,5.9009,2.6119,.0529,4.7671-2.3024,4.8138-5.2606,.0033-.2137-.0046-.4276-.0238-.6403-.2748-3.3107-2.7043-5.8575-5.64-5.9122-2.6175-.0465-4.7727,2.319-4.8138,5.2836-.0029,.2099,.005,.4199,.0238,.6286Z" style="fill:#f5f5f5;"></path><path d="M630.90659,59.2545c.2753,3.3088,2.7061,5.852,5.64,5.9009,2.6119,.0529,4.7671-2.3024,4.8138-5.2606,.0034-.2137-.0046-.4276-.0237-.6403-.2749-3.3107-2.7044-5.8575-5.6401-5.9122-2.6175-.0465-4.7727,2.319-4.8138,5.2836-.0029,.2099,.005,.4199,.0238,.6286Z" style="fill:#f5f5f5;"></path><path d="M618.54659,59.2545c.2753,3.3088,2.7061,5.852,5.64,5.9009,2.6175,.0522,4.7766-2.3087,4.8227-5.2732,.0033-.2095-.00429-.4191-.0227-.6277-.2792-3.3082-2.7062-5.8524-5.64-5.9122-2.6174-.0528-4.777,2.3076-4.8237,5.2721-.0033,.2137,.0046,.4275,.0237,.6401Z" style="fill:#f5f5f5;"></path><path d="M606.23659,59.2545c.2796,3.3063,2.7079,5.8469,5.64,5.9009,2.6175,.0522,4.7766-2.3087,4.8227-5.2732,.0033-.2095-.00429-.4191-.0227-.6277-.2792-3.3082-2.7062-5.8524-5.64-5.9122-2.623-.0459-4.7823,2.3254-4.8228,5.2962-.00279,.2057,.0048,.4114,.0228,.616Z" style="fill:#f5f5f5;"></path><path d="M593.83659,59.2545c.2753,3.3088,2.7061,5.852,5.64,5.9009,2.6119,.0529,4.7671-2.3024,4.8138-5.2606,.0033-.2137-.0046-.4276-.0238-.6403-.2748-3.3107-2.7043-5.8575-5.64-5.9122-2.6175-.0465-4.7727,2.319-4.8138,5.2836-.0029,.2099,.005,.4199,.0238,.6286Z" style="fill:#f5f5f5;"></path><path d="M656.56659,72.4607c.2749,3.3108,2.70441,5.8576,5.64,5.9122,2.6119,.0536,4.7675-2.3012,4.8148-5.2595,.0035-.2179-.0048-.4359-.0248-.6527-.2752-3.3087-2.706-5.8519-5.64-5.9009-2.6119-.0528-4.7671,2.3025-4.8137,5.2608-.0034,.2137,.0045,.4275,.0237,.6401Z" style="fill:#f5f5f5;"></path><path d="M644.23659,72.4607c.2749,3.3108,2.70441,5.8576,5.64,5.9122,2.61741,.0529,4.7771-2.3076,4.8237-5.272,.0034-.2138-.0045-.4275-.0237-.6402-.27959-3.3063-2.7078-5.8467-5.64-5.9009-2.6174-.0521-4.77659,2.3088-4.8227,5.2733-.0033,.2096,.0043,.4191,.0227,.6276Z" style="fill:#f5f5f5;"></path><path d="M631.84659,72.4607c.2749,3.3108,2.70441,5.8576,5.64,5.9122,2.61741,.0529,4.7771-2.3076,4.8237-5.272,.0033-.2138-.0046-.4275-.0237-.6402-.27959-3.3063-2.7079-5.8467-5.64-5.9009-2.6174-.0521-4.77659,2.3088-4.8227,5.2733-.0033,.2096,.0043,.4191,.0227,.6276Z" style="fill:#f5f5f5;"></path><path d="M619.49659,72.4607c.2749,3.3108,2.70441,5.8576,5.64,5.9122,2.6175,.0466,4.7728-2.3189,4.8139-5.2835,.0029-.21-.0051-.4198-.0239-.6287-.2752-3.3087-2.706-5.8519-5.64-5.9009-2.6118-.0528-4.7671,2.3025-4.8137,5.2608-.0034,.2137,.0045,.4275,.0237,.6401Z" style="fill:#f5f5f5;"></path><path d="M607.13659,72.4607c.2749,3.3108,2.70441,5.8576,5.64,5.9122,2.6119,.0536,4.7675-2.3012,4.8148-5.2595,.0035-.2179-.0048-.4359-.0248-.6527-.2752-3.3087-2.706-5.8519-5.64-5.9009-2.6119-.0528-4.7671,2.3025-4.8137,5.2608-.0034,.2137,.0045,.4275,.0237,.6401Z" style="fill:#f5f5f5;"></path><path d="M594.77659,72.4607c.2749,3.3108,2.70441,5.8576,5.64,5.9122,2.61741,.0529,4.7771-2.3076,4.8237-5.272,.0034-.2138-.0045-.4275-.0237-.6402-.27959-3.3063-2.7078-5.8467-5.64-5.9009-2.6174-.0521-4.77659,2.3088-4.8227,5.2733-.0032,.2096,.0044,.4191,.0227,.6276Z" style="fill:#f5f5f5;"></path><path d="M657.51659,85.7235c.2749,3.3109,2.70441,5.8576,5.64,5.9122,2.6175,.0466,4.7728-2.3189,4.8139-5.2835,.0029-.2099-.0051-.4198-.0239-.6287-.2748-3.3107-2.7043-5.8575-5.64-5.9122-2.6175-.0465-4.7727,2.319-4.8138,5.2836-.0029,.2099,.005,.4198,.0238,.6286Z" style="fill:#f5f5f5;"></path><path d="M645.15659,85.7235c.2749,3.3109,2.70441,5.8576,5.64,5.9122,2.6175,.0466,4.7728-2.3189,4.8139-5.2835,.0029-.2099-.005-.4198-.0238-.6287-.2749-3.3107-2.7044-5.8575-5.6401-5.9122-2.6175-.0465-4.7727,2.319-4.8138,5.2836-.0029,.2099,.005,.4198,.0238,.6286Z" style="fill:#f5f5f5;"></path><path d="M632.79659,85.7235c.2749,3.3109,2.70441,5.8576,5.64,5.9122,2.61741,.0529,4.7771-2.3075,4.8237-5.272,.0034-.2137-.0045-.4275-.0237-.6402-.2748-3.3107-2.7044-5.8575-5.64-5.9122-2.6174-.0528-4.777,2.3076-4.8237,5.2721-.0033,.2138,.0046,.4275,.0237,.6401Z" style="fill:#f5f5f5;"></path><path d="M620.43659,85.7235c.2793,3.3084,2.7062,5.8526,5.64,5.9122,2.6231,.0459,4.7823-2.3252,4.8228-5.2961,.0028-.2056-.0048-.4113-.0228-.6161-.2792-3.3082-2.7062-5.8524-5.64-5.9122-2.623-.0458-4.7823,2.3254-4.8228,5.2962-.00279,.2057,.0048,.4114,.0228,.616Z" style="fill:#f5f5f5;"></path><path d="M608.07659,85.7235c.2792,3.3084,2.7062,5.8526,5.64,5.9122,2.61741,.0529,4.7771-2.3075,4.8237-5.272,.0034-.2137-.0045-.4275-.0237-.6402-.2748-3.3107-2.7044-5.8575-5.64-5.9122-2.623-.0458-4.7823,2.3254-4.8228,5.2962-.00279,.2057,.0048,.4114,.0228,.616Z" style="fill:#f5f5f5;"></path><path d="M595.72659,85.7235c.2748,3.3109,2.70441,5.8576,5.64,5.9122,2.6175,.0466,4.7728-2.3189,4.8139-5.2835,.0029-.2099-.0051-.4198-.0239-.6287-.2748-3.3107-2.7043-5.8575-5.64-5.9122-2.6175-.0465-4.7727,2.319-4.8138,5.2836-.003,.2099,.005,.4198,.0238,.6286Z" style="fill:#f5f5f5;"></path><polygon points="273.4669 388.5373 387.04069 278.0359 443.52839 277.1183 328.67339 388.2481 273.4669 388.5373" style="fill:#f5f5f5;"></polygon><polygon points="512.74369 388.5373 626.31759 278.0359 682.80529 277.1183 567.95019 388.2481 512.74369 388.5373" style="fill:#f5f5f5;"></polygon><polygon points="348.61609 388.5373 462.18989 278.0359 479.05029 277.1183 366.85029 388.2481 348.61609 388.5373" style="fill:#f5f5f5;"></polygon></g></g><g id="freepik--Shadows--inject-61"><path d="M607.77249,450.5012c0,7.9503-82.978,14.3953-185.33649,14.3953s-185.3365-6.445-185.3365-14.3953,82.978-14.3955,185.3365-14.3955,185.33649,6.4451,185.33649,14.3955Z" style="fill:#f5f5f5;"></path><ellipse cx="178.39322" cy="411.54657" rx="137.28802" ry="11.01993" style="fill:#f5f5f5;"></ellipse><ellipse cx="596.31451" cy="401.12748" rx="137.28802" ry="11.01993" style="fill:#f5f5f5;"></ellipse></g><g id="freepik--Floor--inject-61"><path d="M29.9032,388.1591H720.09678c.48259,0,.48339-.75,0-.75H29.9032c-.48259,0-.48339,.75,0,.75h0Z" style="fill:#263238;"></path></g><g id="freepik--Fence--inject-61"><g><path d="M247.9595,389.2476V171.9501h9.581v217.2975h-9.581Z" style="fill:#a24e3f;"></path><path d="M486.73949,389.6605V158.2674h9.5811v231.3931h-9.5811Z" style="fill:#a24e3f;"></path><path d="M488.06219,218.645h-230.52169v-9.5811h230.52169v9.5811Z" style="fill:#a24e3f;"></path><rect x="482.88639" y="209.0639" width="3.6614" height="9.5811" style="opacity:.3;"></rect><rect x="257.5405" y="209.0639" width="3.6614" height="9.5811" style="opacity:.3;"></rect></g></g><g id="freepik--Character_4--inject-61"><g><g><g><path d="M597.73469,266.7003s40.0508,18.92,55.55831,41.9227c14.46249,21.4529,18.89159,74.1504,18.89159,74.1504h12.9492s1.431-70.1376-18.5885-98.402-43.1406-41.8731-43.9865-40.4774c-.8459,1.3958-32.144,2.0938-32.144,2.0938l7.3199,20.7125Z" style="fill:#ff7a6d;"></path><path d="M672.18459,382.7734l-6.1365-34.3321,17.5525-3.549s1.9716,25.607,1.5332,37.8811h-12.9492Z" style="fill:#05B2DC;"></path><path d="M672.18459,382.7734l-6.1365-34.3321,17.5525-3.549s1.9716,25.607,1.5332,37.8811h-12.9492Z" style="fill:#fff; opacity:.7;"></path><g><g><path d="M686.16089,377.5718c-2.14189-.4386-3.4648,.0115-3.642,1.7045-1.01289-.01-1.9711,.4695-2.6037,1.2431-2.728,3.3369-4.6125,2.0473-7.2824-1.141-1.7763-.2158-2.342,1.7332-2.5106,2.2566l-3.8531,11.5765c-.33309,.9666,.2112,1.9829,1.2158,2.27,.1786,.0511,.3649,.0766,.55311,.0756,5.43609,.0529,8.008,.078,14.77369,.144l20.6917,.2014c5.6408,.0551,7.0463-5.355,4.7447-5.8791-10.352-2.3037-17.6225-5.308-20.7255-8.2382-.5765-.5134-.7793-2.6352-1.3617-4.2134Z" style="fill:#05B2DC;"></path><path d="M703.90029,394.4226c-3.8351,.8224-9.1842-2.5086-14.0692-2.5615-4.8847-.0529-4.893,1.8295-13.4203,2.3664-8.5274,.5368-9.6581-2.4688-9.6581-2.4688l-.0005,.001-.48319,1.4517c-.33291,.9667,.21119,1.983,1.21589,2.27,.1785,.0512,.365,.0767,.5532,.0756,5.43591,.053,8.00791,.0781,14.7735,.144l20.6918,.2015c3.0091,.0294,4.8015-1.4965,5.4803-3.0062-.6261,.281-2.221,.9125-5.0834,1.5263Z" style="opacity:.3;"></path><path d="M674.32479,390.0925c2.90204,.33331,5.86009-.292,8.38957-1.7497,.41808-.24093,.04081-.88927-.37854-.6476-2.42447,1.39718-5.23271,1.9664-8.01103,1.6473-.47866-.05498-.47473,.69548,0,.75h0Z" style="fill:#fff;"></path></g><path d="M688.82175,386.13797c.55944-.69553,1.11882-1.39112,1.6782-2.0867,.1227-.15258,.16024-.38323,0-.53033-.13637-.12519-.39905-.16324-.53033,0-.55938,.69558-1.11876,1.39117-1.6782,2.0867-.12272,.15257-.16023,.38324,0,.53033,.13638,.1252,.39904,.16323,.53033,0h0Z"></path><path d="M691.40365,387.52247c.63563-.64356,1.15721-1.40084,1.52144-2.2291,.07876-.17909,.05845-.41111-.13453-.51307-.16259-.0859-.42876-.05719-.51307,.13453-.17326,.39401-.38043,.7723-.62142,1.12902-.05848,.08657-.11889,.17183-.18113,.25574l-.04424,.059c-.04082,.05404,.05283-.06621-.02023,.02625-.03048,.03857-.06122,.07694-.09241,.11494-.14043,.17106-.28922,.33491-.44472,.49235-.13801,.13973-.14988,.39274,0,.53033,.14893,.13672,.38304,.14913,.53033,0h0Z"></path><path d="M694.20975,388.82537c.63556-.64359,1.15719-1.40088,1.52124-2.2292,.07872-.17911,.05848-.41109-.13453-.51307-.16256-.08589-.4288-.0572-.51307,.13453-.17318,.39404-.38032,.77234-.62129,1.12907-.05848,.08657-.11889,.17184-.18112,.25576l-.04424,.059c-.04082,.05404,.05283-.06621-.02023,.02626-.03048,.03858-.06121,.07695-.09241,.11495-.14042,.17106-.28919,.33491-.44468,.49237-.138,.13974-.14989,.39274,0,.53033,.14892,.13671,.38305,.14914,.53033,0h0Z"></path></g><path d="M648.478,301.8573l18.06729-17.4859s6.96571,8.1371,9.7339,20.7527l-22.4795,4.4914-5.32169-7.7582Z" style="fill:#263238;"></path></g><polygon points="666.92189 353.33 666.46239 350.7591 683.78249 347.3776 683.98779 350.3538 666.92189 353.33" style="fill:#05B2DC;"></polygon></g><g><g><path d="M574.291,233.3491c-.88061,.3633-22.80471,76.1277-32.36661,87.7759-10.7737,13.1246-30.8625,34.0939-39.1758,55.0764l11.026,.6978s28.8047-23.2398,44.3558-40.2749c15.9561-17.4787,19.6041-42.15,39.2729-64.3113,19.669-22.1613,9.7252-30.1981,8.551-30.1981s-31.66329-8.7658-31.66329-8.7658Z" style="fill:#ff7a6d;"></path><path d="M520.71419,345.8283s14.7429,12.4248,14.3961,12.9436c-.7128,1.066-21.82729,19.0133-21.82729,19.0133l-10.93591-2.1824s4.0437-7.6452,8.4603-15.0946c3.5108-5.9217,9.9068-14.6799,9.9068-14.6799Z" style="fill:#05B2DC;"></path><path d="M520.71419,345.8283s14.7429,12.4248,14.3961,12.9436c-.7128,1.066-21.82729,19.0133-21.82729,19.0133l-10.93591-2.1824s4.0437-7.6452,8.4603-15.0946c3.5108-5.9217,9.9068-14.6799,9.9068-14.6799Z" style="fill:#fff; opacity:.7;"></path><g><g><path d="M517.62709,373.0772c-2.0228-.8298-3.4065-.6339-3.8957,.9965-.99339-.1983-2.0241,.0943-2.7896,.7365-3.3017,2.7707-4.9131,1.1527-6.9427-2.477-1.705-.5428-2.6237,1.2667-2.8869,1.7498l-5.94119,10.6564c-.50721,.8879-.16181,1.9876,.77179,2.4568,.166,.0834,.3444,.1432,.5294,.1773,5.3312,1.0641,7.8535,1.5677,14.4885,2.8923l20.2924,4.0507c5.5318,1.1044,7.9202-3.9494,5.7563-4.8929-9.7419-4.1909-16.326-8.4964-18.8289-11.9532-.4709-.6118-.2751-2.7342-.5534-4.3932Z" style="fill:#05B2DC;"></path><path d="M531.91869,392.9364c-3.9213,.0939-8.55669-4.1749-13.3464-5.1364-4.78929-.9615-5.1481,.8863-13.6262-.1739-8.4782-1.0603-9.0295-4.2239-9.0295-4.2239l-.0007,.0009-.74489,1.3363c-.50711,.8879-.16181,1.9876,.77179,2.4568,.166,.0834,.3444,.1432,.5294,.1773,5.3311,1.0641,7.8535,1.5677,14.4885,2.8923l20.2924,4.0507c2.951,.5892,4.9961-.5764,5.9442-1.9333-.6674,.1596-2.3521,.483-5.2786,.5532Z" style="opacity:.3;"></path><path d="M503.6367,383.1682c2.78932,.867,5.81381,.81912,8.57258-.142,.45292-.15779,.25812-.8826-.19938-.72321-2.64231,.92055-5.50136,.97268-8.17382,.142-.46196-.14359-.65956,.58017-.19938,.72321h0Z" style="fill:#fff;"></path></g><path d="M518.70036,381.94427c.67907-.57927,1.35818-1.15849,2.0373-1.7377,.1498-.12776,.14117-.40074,0-.53033-.15947-.14639-.37054-.13628-.53033,0-.67912,.57921-1.35823,1.15843-2.0373,1.7377-.14979,.12778-.14118,.40073,0,.53033,.15946,.14638,.37056,.13629,.53033,0h0Z"></path><path d="M520.90346,383.844c.77537-.53501,1.43974-1.20088,1.97253-1.97783,.11124-.16222,.0357-.42313-.13453-.51307-.19056-.10068-.39435-.03859-.51307,.13453-.05946,.08672-.12046,.17235-.18359,.25644-.00562,.00748-.07015,.09087-.01799,.02433l-.03898,.04959c-.03267,.04118-.0658,.082-.09938,.12245-.13768,.16583-.28294,.32536-.43512,.47798-.14848,.14891-.30355,.29122-.46465,.42637-.04027,.03379-.08092,.06712-.12194,.1l-.06179,.04899c-.0554,.04382,.02405-.01728-.01155,.00875-.08916,.0652-.17753,.13112-.26848,.19387-.16113,.11118-.24996,.33403-.13453,.51307,.10331,.16024,.3404,.25368,.51307,.13453h0Z"></path><path d="M523.41786,385.6464c.77539-.53491,1.43977-1.20072,1.97253-1.97763,.11124-.16222,.0357-.42313-.13453-.51307-.19056-.10068-.39435-.03859-.51307,.13453-.05946,.08671-.12046,.17234-.18359,.25643-.00562,.00748-.07015,.09087-.01799,.02433l-.03898,.04959c-.03267,.04118-.0658,.082-.09938,.12244-.13768,.16582-.28294,.32533-.43512,.47794-.14848,.14889-.30355,.29118-.46465,.4263-.04027,.03378-.08092,.06711-.12194,.09999l-.06179,.04898c.04124-.03262,.01457-.01107-.01155,.00874-.08797,.06671-.1776,.13114-.26848,.19383-.16114,.11117-.24996,.33404-.13453,.51307,.10332,.16025,.34038,.25366,.51307,.13453h0Z"></path></g><path d="M536.53509,327.5147l15.0084,15.9454s9.9826-9.134,15.0153-18.2907l-20.9549-10.278s-4.8521,8.0179-9.0688,12.6233Z" style="fill:#263238;"></path></g><polygon points="517.17759 350.8037 530.948 362.4729 533.00879 360.763 518.73169 348.5922 517.17759 350.8037" style="fill:#05B2DC;"></polygon></g><g><g><path d="M548.83309,287.806s19.217,17.4405,28.89491,16.4035l23.29689-35.0057,26.3244,18.6022,25.8673-20.5645s-18.1839-18.0688-28.5075-23.4449c-15.0877-7.857-4.3785-52.4297-41.9526-24.597-5.94249,4.4018-13.4368,14.0034-16.819,21.6262-8.6841,19.5728-17.1044,46.9802-17.1044,46.9802Z" style="fill:#05B2DC;"></path><path d="M548.83309,287.806s19.217,17.4405,28.89491,16.4035l23.29689-35.0057,26.3244,18.6022,25.8673-20.5645s-18.1839-18.0688-28.5075-23.4449c-15.0877-7.857-4.3785-52.4297-41.9526-24.597-5.94249,4.4018-13.4368,14.0034-16.819,21.6262-8.6841,19.5728-17.1044,46.9802-17.1044,46.9802Z" style="fill:#fff; opacity:.6;"></path><path d="M549.91469,284.3714s15.2569,16.5524,29.9219,16.8917l-2.10859,2.9464s-4.23611,4.6189-28.89491-16.4035l1.0816-3.4346Z" style="fill:#05B2DC;"></path><path d="M624.53779,286.5603c-.0307-.0136,26.31421-21.6177,26.3557-21.5765l2.3231,2.2577-25.8673,20.5645s-2.365-1.0479-2.8115-1.2457Z" style="fill:#05B2DC;"></path><path d="M595.59239,278.31507c4.07-6.43542,8.62376-12.55134,12.6937-18.9868,.25874-.40912-.39001-.78585-.6476-.37854-4.06994,6.43546-8.6237,12.55138-12.6937,18.9868-.25874,.40912,.39001,.78585,.6476,.37854h0Z" style="fill:#263238;"></path></g><polygon points="601.02489 269.2038 607.15339 273.5346 607.53709 259.8065 601.02489 269.2038" style="opacity:.3;"></polygon></g><g><path d="M658.15349,211.9727s-3.9642,15.8045,1.92451,20.1269c5.88879,4.3224,30.09279,16.0619,30.09279,16.0619l-2.7381,6.157s-30.6846-3.8433-39.6892-11.3335c-9.0047-7.49-8.5448-28.0938-8.5448-28.0938l18.9548-2.9185Z" style="fill:#ff7a6d;"></path><path d="M686.55739,254.495c.1321,.267,2.6132,2.7094,3.6217,3.5176,1.0086,.8083,10.1015,3.8685,9.9615,2.5801-.1399-1.2884-.475-1.6303-2.3663-2.5456-1.8912-.9153-3.7178-1.5885-3.0555-1.9264,.6625-.3379,6.7675,.8208,8.2024,1.9318,1.43481,1.1108,3.9663,3.2079,5.0883,2.4572,1.122-.7505,.164-1.904,.164-1.904,0,0,1.6708,.4703,1.3924-.6509-.2783-1.1212-3.26589-6.1512-5.0862-7.2586-1.8204-1.1075-11.9026-1.8846-14.0436-2.4351-.6434-.1653-6.7077-3.2627-6.7077-3.2627l-4.8515,7.7157,7.6805,1.7809Z" style="fill:#ff7a6d;"></path><path d="M641.40739,231.9676l16.2124-3.6309,2.45821,3.7629-11.6,12.343s-6.23881-5.6753-7.07061-12.475Z" style="fill:#263238;"></path></g><g><g><circle cx="537.63719" cy="177.127" r="20.9577" style="fill:#05B2DC;"></circle><path d="M556.994,170.4968c-2.94661,2.172-6.44141,3.5134-10.09331,3.8169-.0392,.0032-.0684,.0202-.1031,.0297-.6993-1.4616-1.9282-2.6444-3.5102-3.2479-.3962-.1511-.8048-.2435-1.2167-.3092,.6178-5.1655-.9033-10.3843-4.2503-14.382-.4465-.5334-1.2067,.2338-.7633,.7634,3.1165,3.7224,4.5833,8.7252,3.955,13.5422-1.8629,.0192-3.7008,.8328-4.905,2.3064-.3449,.4222-.6142,.8888-.8377,1.3735-5.5096-2.0635-11.2416-3.4311-17.0911-4.0729-.6898-.0757-.68429,1.0046,0,1.0797,5.72,.6275,11.3305,1.9928,16.7192,4.0043-.4492,1.647-.2621,3.4493,.6429,4.9638,.4634,.7757,1.0859,1.4123,1.7968,1.9138-2.4517,5.1219-7.5143,8.8358-13.1771,9.4919-.682,.0791-.69,1.1596,0,1.0797,6.0275-.6982,11.4813-4.537,14.1057-10.021,1.2104,.5805,2.5948,.796,3.9645,.5496,.595-.107,1.1438-.3197,1.6619-.5819,.0094,.0065,.013,.0154,.0229,.0217,3.3363,2.1116,5.7125,5.53,6.5637,9.3816,.1497,.6781,1.1909,.3912,1.041-.287-.8741-3.9556-3.3005-7.4621-6.6435-9.7332,1.5493-1.1905,2.53971-3.0645,2.5675-5.0904-.0082-.5957-.1073-1.1736-.2669-1.7286,3.7386-.3602,7.3336-1.6995,10.3619-3.9318,.5535-.4079,.0154-1.3453-.54479-.9323Zm-14.13961,11.5994c-2.1113,.7561-4.5112,.0937-5.9358-1.6376-1.127-1.3697-1.4477-3.2341-.9555-4.8984,.1543-.1218,.226-.3422,.1895-.5537,.0932-.2209,.19541-.4389,.3198-.6472,1.12761-1.8869,3.3834-2.9187,5.549-2.5038,2.51461,.4817,4.3078,2.6918,4.3428,5.234-.0304,2.2167-1.4009,4.2515-3.5098,5.0067Z" style="opacity:.3;"></path><path d="M532.24889,179.6971c0,.4314-.3497,.7811-.781,.7811s-.781-.3497-.781-.7811c0-.4313,.3497-.781,.781-.781s.781,.3497,.781,.781Z" style="opacity:.3;"></path><path d="M542.61389,187.5084c0,.4313-.3497,.781-.7811,.781-.4313,0-.781-.3497-.781-.781,0-.4314,.3497-.781,.781-.781,.4314,0,.7811,.3496,.7811,.781Z" style="opacity:.3;"></path><path d="M536.74209,169.0414c0,.4314-.3497,.7811-.78109,.7811-.43131,0-.781-.3497-.781-.7811s.34969-.7811,.781-.7811c.43139,0,.78109,.3497,.78109,.7811Z" style="opacity:.3;"></path><path d="M552.345,179.183c0,.4313-.34971,.781-.781,.781-.43141,0-.78111-.3497-.78111-.781,0-.4314,.3497-.7811,.78111-.7811,.43129,0,.781,.3497,.781,.7811Z" style="opacity:.3;"></path><path d="M547.24229,169.0414c0,.4314-.3496,.7811-.781,.7811s-.7811-.3497-.7811-.7811,.3497-.7811,.7811-.7811,.781,.3497,.781,.7811Z" style="opacity:.3;"></path></g><path d="M519.58279,173.9316c0-4.6472,1.531-8.9264,4.0907-12.4016-4.283,3.8372-6.994,9.3938-6.994,15.597,0,11.5746,9.383,20.9577,20.9578,20.9577,6.9271,0,13.0508-3.3755,16.8665-8.5556-3.7089,3.3224-8.592,5.3602-13.9632,5.3602-11.5747,0-20.9578-9.3831-20.9578-20.9577Z" style="opacity:.3;"></path></g><path d="M559.8378,186.69117c2.98597-6.10247,3.03446-13.33302,.13609-19.47664-.2058-.43623-.8526-.05598-.6476,.37854,2.77608,5.88439,2.72315,12.87609-.13609,18.71956-.21133,.4319,.43526,.8125,.6476,.37854h0Z" style="fill:#05B2DC;"></path><g><path d="M622.20789,156.3289c-2.1626-.7883-16.7211-16.0447-35.254-17.3219-15.6886-1.0813-41.6331,13.5986-41.6331,13.5986l.769,7.2637,26.8759-6.3487c13.4804-2.9808,19.0252-.0802,26.8721,5.3826l11.3049,6.4943,11.0652-9.0686Z" style="fill:#ff7a6d;"></path><path d="M546.55039,160.0364c-.1322,.267-2.6133,2.7094-3.6218,3.5176-1.0085,.8083-10.1015,3.8685-9.9615,2.5802,.13991-1.2884,.4751-1.6304,2.3663-2.5457s3.7179-1.5885,3.0555-1.9264c-.6625-.3379-6.7674,.8208-8.2024,1.9318-1.4348,1.1108-3.9663,3.2079-5.0884,2.4572-1.1219-.7505-.1638-1.904-.1638-1.904,0,0-1.6709,.4704-1.3926-.6509,.2784-1.1212,3.266-6.1512,5.08631-7.2586,1.82039-1.1074,11.90269-1.8846,14.04369-2.4351,.64331-.1653,6.7077-3.2627,6.7077-3.2627l4.8513,7.7157-7.6803,1.7809Z" style="fill:#ff7a6d;"></path><path d="M576.94339,139.369l4.7439,13.6844h6.794l7.6504-12.8343s-12.0344-3.8337-19.1883-.8501Z" style="fill:#263238;"></path></g><g><path d="M634.77279,160.3886c-.60079-.3235-4.34779-2.673-5.003-2.8636-5.1452-1.497-14.4374,8.5376-15.9344,13.6827-19.1178,45.9794-26.9143,39.8274-33.7955,48.4715-.4432,21.0533,41.9252,38.6402,48.752,16.195,8.5492-10.5676,17.1276-17.226,21.9985-23.9015,14.7382-22.0182,7.0449-29.3208,7.0449-29.3208,0,0-21.608-21.481-23.0625-22.2633Z" style="fill:#05B2DC;"></path><path d="M657.83529,182.6519s6.065,4.9964,6.8475,10.2646c.8829,5.9442,.1705,16.3265-2.4181,22.2643,0,0-18.5771-.9124-18.7825-1.293s14.3531-31.2359,14.3531-31.2359Z" style="fill:#05B2DC;"></path><path d="M627.20839,181.5485s15.888-10.4908,8.4344-20.4603c-6.9019-9.2317-25.4083-14.7263-25.4083-14.7263l-9.9764,21.2011s21.8933,15.7775,26.9503,13.9855Z" style="fill:#05B2DC;"></path><path d="M606.20519,154.9246s16.2553,4.7933,26.7791,14.0108l1.5242-2.8306s-14.9317-13.0208-26.8806-14.2037l-1.4227,3.0235Z" style="fill:#fff; opacity:.6;"></path><path d="M660.74879,215.1043s2.336-9.3237,2.336-13.2519v-9.1349l1.2103-1.3598s2.9168,9.7251-2.0304,23.8231l-1.5159-.0765Z" style="fill:#fff; opacity:.6;"></path><g style="opacity:.3;"><path d="M589.09149,229.6306c3.9799,4.7975,9.3479,7.3173,15.3944,9.2651,6.0466,1.9478,13.8545,2.2229,19.9642,.6755-12.3845-.2157-24.8077-3.5618-35.3586-9.9406Z"></path></g><path d="M603.194,222.2415c.08429,.7576,17.96569,12.5735,21.51829,11.1076,3.55271-1.4659,20.4255-22.4269,19.7024-25.4447s-20.5083-13.1416-22.6678-12.1774c-2.1595,.9641-18.79389,24.3451-18.55289,26.5145Z" style="fill:#05B2DC;"></path><path d="M603.194,222.2415c.08429,.7576,17.96569,12.5735,21.51829,11.1076,3.55271-1.4659,20.4255-22.4269,19.7024-25.4447s-20.5083-13.1416-22.6678-12.1774c-2.1595,.9641-18.79389,24.3451-18.55289,26.5145Z" style="fill:#fff; opacity:.7;"></path><path d="M621.74689,195.727c2.57911-.7797,25.9804,9.6895,22.6904,14.0883-.3924,.5244-1.1279,2.5802-4.0429,6.3425l-25.8316-11.9182c3.1525-4.3544,5.7449-8.0775,7.1841-8.5126Z" style="fill:#263238;"></path><g><path d="M620.877,220.415l-.74321,1.1709-5.4922-3.4819,.5869-.9263,4.7412-.934c1.1621-.233,1.5664-.5884,1.8301-1.004,.4316-.6811,.2129-1.3725-.7021-1.9526-.72369-.458-1.4864-.5986-2.2383-.3291l-.4971-1.3594c1.0674-.4131,2.38971-.2158,3.6143,.5601,1.6191,1.0259,2.1425,2.5063,1.3047,3.8267-.4581,.7236-1.0792,1.2558-2.7256,1.5698l-3.1924,.6323,3.51371,2.2275Z" style="fill:#263238;"></path><path d="M628.48539,224.5068l-1.32039-.8359-1.07321,1.6924-1.34079-.8506,1.07319-1.6924-4.0879-2.5918,.6075-.958,6.7148-2.4726,1.4805,.9379-6.3682,2.3951,2.4375,1.5449,.9512-1.501,1.2988,.8237-.9512,1.501,1.3203,.8364-.7421,1.1709Z" style="fill:#263238;"></path></g></g><g><g><path d="M660.67,123.0143c-1.21941-2.9595-4.01911-5.3389-7.20981-5.5922-3.1603-.2509-6.3099,1.4941-9.4145,.8545-5.6339-1.161-7.65569-9.2019-13.2652-10.4748-3.838-.871-7.5573,1.9036-10.0144,4.9778-1.748,2.187-3.2485,4.853-2.9306,7.6347,.3179,2.7815,3.2184,5.3357,5.8431,4.3612-2.7301,.3818-4.082,4.0325-2.8188,6.4829,1.26321,2.4502,4.2655,3.5923,7.0189,3.4549,2.7532-.1377,5.3347-1.3105,7.8387-2.4635-1.4922,.5028-1.7517,2.7518-.70739,3.9306,1.04409,1.1785,2.83279,1.4023,4.37509,1.0841,1.5421-.3181,2.9521-1.0796,4.4412-1.5914,3.6046-1.2394,7.7096-.9434,11.0992,.8004l5.6276-4.0797c1.1162-3,1.336-6.42,.11691-9.3795Z" style="fill:#263238;"></path><g><g><g><path d="M652.04749,150.0266l4.0643,14.3598,1.7235,2.9744c-1.3334,1.0493-2.6059,2.1847-3.5715,3.4323-1.7332,2.1841-2.2011,4.4878-.95,7.5007,.0695,2.9488-.7296,5.2539-2.6303,6.7422-2.3917,1.873-5.7914,1.5255-8.19849-.3276-8.16741-6.2874-2.76431-19.7132-2.76431-19.7132,6.7011-.686,10.2336-8.6986,12.3268-14.9686Z" style="fill:#ff7a6d;"></path><path d="M653.897,171.2801c-1.69871-2.8984-3.03371-7.0352-1.05681-9.8259,.8404-1.1706,1.7663-2.208,2.487-2.8027l1.377,9.638c-1.0273,.8629-1.5819,1.5023-2.80719,2.9906Z" style="opacity:.2;"></path><path d="M655.90989,138.7353c-4.3561,9.9241-6.4035,14.022-4.267,21.6693,3.2136,11.5031,15.8787,15.2322,22.99611,6.9429,6.40619-7.4607,12.45369-22.4364,5.375-31.5321-6.974-8.9612-19.74791-7.0042-24.10411,2.9199Z" style="fill:#ff7a6d;"></path><path d="M666.58349,148.4202c-.506,1.0252-.41849,2.1448,.1959,2.5011,.6138,.3561,1.52161-.186,2.0277-1.211,.5061-1.0251,.4185-2.1449-.1957-2.5012-.614-.3561-1.5218,.186-2.0279,1.2111Z" style="fill:#263238;"></path><path d="M675.91419,153.5413c-.4883,.9944-.3879,2.0885,.2242,2.4439,.6121,.355,1.5043-.163,1.99261-1.1575,.48829-.9944,.388-2.0886-.22421-2.4439-.612-.3553-1.5041,.163-1.9926,1.1575Z" style="fill:#263238;"></path><path d="M666.53669,143.8497c.1129,.08,.2544,.1126,.39531,.0779,2.2-.5431,3.57719,.8357,3.593,.8518,.20359,.205,.52539,.2034,.71789-.0136,.1918-.2172,.1814-.5624-.0234-.7728-.0717-.0727-1.7987-1.8053-4.529-1.1308-.272,.0675-.4389,.3605-.3726,.6548,.0327,.1414,.113,.2579,.2188,.3327Z" style="fill:#263238;"></path><path d="M681.66729,150.533c.1129,.0206,.2314-.0063,.3302-.0869,.2043-.1664,.2492-.4963,.1011-.7363-1.4882-2.407-3.5985-2.3691-3.68859-2.3656-.25241,.008-.44641,.2508-.43331,.5431,.0126,.2916,.2272,.5213,.4788,.5148,.0827-.0028,1.7198-.0048,2.9028,1.9096,.0766,.1237,.1898,.1996,.309,.2213Z" style="fill:#263238;"></path><path d="M673.62079,151.3724s-.4629,4.6601-.0142,7.7857c.0786,.5463-.4125,1.0089-.9579,.9252-1.4038-.2154-2.568-1.666-2.568-1.666l3.5401-7.0449Z" style="fill:#a24e3f;"></path></g><path d="M668.23269,147.0539l2.4511,.6862s-2.0789,.9612-2.4511-.6862Z" style="fill:#263238;"></path><path d="M677.67169,152.2829l2.4511,.6861s-2.0794,.9615-2.4511-.6861Z" style="fill:#263238;"></path><path d="M657.56159,143.6919s8.9267-4.641,11.9587-10.7193c0,0,11.0656,2.675,12.6162,16.7717,.266,2.4172-.4381,4.481-1.0493,6.7758,0,0,12.3769-13.8888-5.3085-27.2806-14.566-11.03-37.5666,9.0458-24.7102,23.568,0,0,.939-6.1942,6.4931-9.1156Z" style="fill:#263238;"></path><path d="M648.93539,144.7007c.0448,2.554,1.1853,4.7726,2.6173,6.1084,2.1536,2.0091,5.6668-1.2971,6.1981-4.2736,.4781-2.6799-1.1535-5.5306-3.8587-6.384-2.665-.8407-5.008,1.629-4.9567,4.5492Z" style="fill:#ff7a6d;"></path></g><path d="M665.80909,157.0343c-.08909-.0425-.1904-.0604-.2945-.0462-.2804,.0378-.473,.2945-.4287,.5735,.4429,2.7991,2.6,3.8121,2.69111,3.8698,.25949,.1203,.56409,.012,.68029-.2421,.1158-.2534,.0014-.5555-.255-.6776-.0916-.0385-1.7438-.8401-2.0992-3.0867-.0277-.176-.1428-.3186-.294-.3907Z" style="fill:#263238;"></path><path d="M655.05273,147.87793c-.01465,0-.0293-.00244-.04395-.00781-.06445-.02441-.09766-.09668-.07324-.16113,.33008-.87695,.41895-1.83398,.25781-2.76855-.10547-.61328-.37305-1.46729-1.04492-2.05029-.62695-.54199-1.5-.68896-2.12207-.35986-.06055,.03223-.13672,.00928-.16895-.05176s-.00879-.13672,.05176-.16895c.71289-.37646,1.7002-.21631,2.40332,.3916,.72754,.63184,1.01465,1.54346,1.12695,2.19727,.16895,.97803,.0752,1.97998-.26953,2.89844-.01855,.05029-.06641,.08105-.11719,.08105Z" style="opacity:.2;"></path></g></g><g><path d="M653.38409,137.3956s7.1938,6.0131,7.8188,7.8548c.6249,1.8416,.73811,6.3145,5.0012,9.217,2.6447,1.8006,7.909,.545,7.909,.545,0,0,.3233,4.7898,2.7152,5.7867,2.5441,1.0603,4.2976-1.1372,4.2976-1.1372,0,0,4.3282-4.7604,3.84511-8.0457-.48311-3.2853-32.65781-19.6753-32.65781-19.6753l-2.2363,2.7022,3.3072,2.7525Z" style="fill:#05B2DC;"></path></g></g></g></g><g id="freepik--Character_2--inject-61"><g><g><path d="M398.49209,162.4998s59.7208,2.6348,72.1483,11.2172c9.7097,6.7054,2.8644,81.2908,2.8644,81.2908l-12.1934,9.5199s-3.334-71.5325-8.7036-73.1251c-5.3696-1.5927-59.3509-1.5673-59.3509-1.5673l5.2352-27.3355Z" style="fill:#b97964;"></path><g><polygon points="475.19739 249.2165 460.16439 250.6251 460.62129 268.3335 460.63769 269.4232 465.84139 272.8765 472.84719 268.1661 475.19739 249.2165" style="fill:#e0e0e0;"></polygon><g><g><path d="M473.37069,265.5512c-1.8939-.3252-3.0434,.1073-3.1516,1.5994-.89,.0197-1.7183,.4677-2.2523,1.165-2.30279,3.0079-3.9945,1.9278-6.4293-.7981-1.5663-.1397-2.0087,1.5882-2.1421,2.0528l-3.0602,10.2773c-.2653,.8585,.2411,1.736,1.1317,1.96,.1584,.0399,.3228,.0571,.48811,.0509,4.77679-.1059,7.03679-.156,12.98189-.2877l18.1822-.4033c4.9567-.1097,6.0397-4.9017,4.0031-5.2976-9.15819-1.7334-15.6293-4.1686-18.43719-6.6556-.52091-.4348-.75851-2.2931-1.31431-3.6631Z" style="fill:#05B2DC;"></path><path d="M489.42629,279.8563c-3.3459,.83-8.1382-1.9461-12.4309-1.8556-4.29239,.0905-4.247,1.7443-11.7227,2.455-7.4758,.7108-8.5534-1.8978-8.5534-1.8978l-.0004,.0009-.3837,1.2888c-.2653,.8585,.2411,1.736,1.1317,1.96,.1583,.0399,.3228,.0571,.48811,.0509,4.77669-.106,7.03679-.156,12.98189-.2878l18.1822-.4032c2.6442-.0586,4.17591-1.4493,4.72991-2.7945-.54211,.2644-1.92551,.8638-4.42271,1.4833Z" style="opacity:.2;"></path><path d="M463.31379,276.9275c2.5647,.21215,5.15854-.41802,7.34527-1.7733,.40946-.25377,.03328-.90284-.37854-.6476-2.08451,1.29192-4.52347,1.87301-6.96673,1.6709-.48102-.03979-.47839,.71043,0,.75h0Z" style="fill:#fff;"></path></g><path d="M476.0318,272.96527c.47182-.62673,.9437-1.25342,1.41559-1.8801,.11847-.15733,.03031-.42598-.13453-.51307-.19719-.10418-.38661-.03341-.51307,.13453-.47189,.62668-.94377,1.25337-1.41559,1.8801-.11845,.15734-.03033,.42597,.13453,.51307,.19717,.10417,.38663,.03343,.51307-.13453h0Z"></path><path d="M478.28006,274.18507c.56932-.6147,1.00868-1.32173,1.32094-2.09798,.0734-.18247-.07986-.41983-.26191-.46129-.217-.04943-.38269,.06652-.46129,.26191l-.02506,.0618c-.01245,.03049-.01604,.03646-.00103,.00261-.02027,.04573-.04016,.09161-.06106,.13706-.03715,.08079-.07604,.16077-.11663,.23988-.08625,.16813-.18015,.33232-.28129,.49193-.0982,.15497-.20343,.30524-.31454,.45122,.02253-.0296,.01662-.02122-.00277,.00308l-.04164,.05209c-.02795,.03458-.05627,.06886-.08495,.10283-.06454,.07647-.13112,.15112-.1991,.22452-.13333,.14395-.15315,.38974,0,.53033,.14497,.13308,.38796,.15372,.53033,0h0Z"></path><path d="M480.78146,275.25077c.56944-.6146,1.0088-1.32168,1.32094-2.09798,.07337-.18248-.07984-.41982-.26191-.46129-.21697-.04942-.38272,.0665-.46129,.26191l-.02505,.06181c-.01244,.03048-.01601,.03649-.00102,.00262-.02024,.04575-.04014,.09162-.06104,.13708-.03715,.08079-.07603,.16078-.11661,.2399-.08624,.16814-.18013,.33233-.28127,.49195-.09819,.15497-.2034,.30527-.31455,.4512,.02254-.02959,.01661-.02122-.00278,.00307l-.04164,.05209c-.02795,.03458-.05628,.06885-.08496,.10282-.06455,.07646-.13114,.1511-.19914,.22449-.13335,.14393-.15313,.38976,0,.53033,.145,.1331,.38793,.15369,.53033,0h0Z"></path></g><path d="M460.50879,253.7507c4.79999-.21463,9.58374-.67235,14.33839-1.364,.47583-.06922,.27351-.792-.19938-.72321-4.68793,.68194-9.40656,1.1256-14.13901,1.3372-.4807,.02149-.48336,.77161,0,.75h0Z" style="fill:#05B2DC;"></path><path d="M460.68119,256.4415c4.57801-.26018,9.13777-.76183,13.66389-1.4963,.47521-.07711,.27356-.79995-.19938-.72321-4.46016,.72376-8.95333,1.21312-13.46451,1.4695-.47986,.02727-.48301,.77745,0,.75h0Z" style="fill:#05B2DC;"></path></g><polygon points="405.47739 162.8837 408.63229 163.0863 410.58079 189.911 403.83779 189.9066 405.47739 162.8837" style="opacity:.3;"></polygon></g><path d="M375.80929,164.1855c11.71271-1.3768,23.487-2.1773,29.6861-1.5977l-1.6576,27.3188s-42.0761,13.2374-56.9732,.0746,28.9447-25.7957,28.9447-25.7957Z" style="fill:#263238;"></path><path d="M364.36189,193.1122c.1917-.0315,10.7334-1.1142,18.6384-9.219,7.9051-8.1049,14.20171-21.4419,14.20171-21.4419l-5.62461,.2711-27.2155,30.3898Z" style="opacity:.3;"></path><g><path d="M293.2441,147.257s5.3003-4.6921,13.2633-6.452c7.9629-1.7599,27.1183-5.0896,28.5714-6.8451s12.564-26.3204,12.564-26.3204l6.1367,.8131s-5.9877,29.7189-10.931,35.3698-32.3934,11.2505-32.3934,11.2505l-17.211-7.8159Z" style="fill:#b97964;"></path><path d="M348.70069,105.0861c-.6292,.152-3.8941-1.977-3.9343-5.9406-.0403-3.9635-.1542-7.3714,.9388-7.0852s1.4965,6.8425,2.6531,5.5821,4.1859-11.3201,7.2221-12.8969-1.2048,4.8252-.0625,5.8062c1.1423,.9811,6.0714-7.4132,6.7393-6.0524s-.46019,3.4731-.46019,3.4731c0,0,2.427,.8871,1.47469,2.74-.9524,1.8529-2.4652,4.7355-2.4652,4.7355,0,0,2.8184-3.1337,3.6988-2.3102,.8805,.8235-8.6467,11.7375-9.7495,13.8343-1.10279,2.0967-1.13479,2.6769-1.13479,2.6769,0,0-6.72581-.3616-6.499-.8611,.22679-.4996,1.57869-3.7017,1.57869-3.7017Z" style="fill:#b97964;"></path></g><g><path d="M399.69439,111.043s30.2882,1.1241,31.5402,2.7586,2.3546,8.8298,.1638,12.0641c-2.1909,3.2343-21.1959,4.3924-21.1959,4.3924,0,0-16.8303-9.1852-10.5081-19.2151Z" style="fill:#263238;"></path><g><path d="M403.04789,112.4421c10.32291,1.26416,20.66868,2.32581,30.9352,4.01238,2.833,.4654,5.65929,.97173,8.47672,1.5237,2.01409,.39459,4.34406,.49805,6.03699,1.69507,3.27427,2.31514,5.82014,5.90771,8.32306,8.98514,3.13033,3.84887,6.2109,7.77616,9.47098,11.51406,3.36337,3.85633,7.62995,7.38474,12.85794,8.1224,10.60206,1.49593,17.79943-9.20046,20.03779-18.18889,3.15929-12.68653-.70405-25.5146-4.52156-37.58812-.57996-1.83424-3.47722-1.0507-2.89284,.79752,3.31993,10.49983,6.87053,21.57839,5.17517,32.72355-.73461,4.82923-2.41735,9.71505-5.49844,13.56771-2.89508,3.62008-7.28198,6.50873-12.10048,5.7044-5.09767-.85093-8.92043-4.78884-12.06526-8.59365-2.9505-3.5697-5.87748-7.1606-8.80531-10.74933-2.52522-3.09524-5.08457-6.47958-8.37014-8.81724-1.57177-1.1183-3.333-1.35856-5.19412-1.73563-2.77108-.56143-5.5513-1.07761-8.33839-1.5531-11.11984-1.89708-22.33595-3.04947-33.52731-4.41998-1.91187-.23413-1.89491,2.76795,0,3h0Z" style="fill:#263238;"></path><path d="M493.25749,91.5971s-7.1217-1.4222-7.1206,2.2808c.001,3.703,8.801,17.0429,8.1894,29.8955-.6117,12.8526-4.1704,19.3601-4.1704,19.3601,0,0,7.3587-5.0579,8.63911-20.6698,1.28039-15.612-5.53751-30.8666-5.53751-30.8666Z" style="fill:#263238;"></path></g></g><g><path d="M365.78809,143.9207c.4657-.5879,24.1723-29.7137,34.74491-31.5437,10.57259-1.83,12.06089,14.5419,9.01839,19.2687s-19.2582,34.0059-19.2582,34.0059l-24.5051-21.7309Z" style="fill:#b97964;"></path><path d="M337.56369,183.7072s25.0819,23.5735,43.7272-2.523l12.9168-21.0698-23.84869-21.9636-17.36961,21.9262-4.5256-1.3229-10.9001,24.9531Z" style="fill:#263238;"></path><path d="M349.37436,165.64177c1.98748-2.55708,3.97502-5.11412,5.9625-7.6712,.29271-.37659-.23436-.91113-.53033-.53033-1.98748,2.55708-3.97502,5.11412-5.9625,7.6712-.29271,.37659,.23436,.91113,.53033,.53033h0Z"></path></g><g><path d="M270.1076,162.2108c.3203,.6527,9.5166,16.3818,13.7477,17.7752,7.4816,2.464,54.0943,4.2523,54.4963,4.5851,.4021,.3328,11.7556-25.789,10.94441-26.0261-.81131-.2372-32.4083-15.7519-40.4363-14.578-8.0279,1.1738-15.6156,3.29-15.6156,3.29l-23.1365,14.9538Z" style="fill:#05B2DC;"></path><path d="M277.4628,197.1991c.7379-5.5689,6.4675-18.6675,6.4675-18.6675,0,0,8.4732,3.4702,8.7247-1.1007,.2515-4.5708-7.0982-18.902-21.7611-15.5367,0,0-3.3202,.3488-3.884,5.9408-.4777,4.7372-1.7135,19.0323-.9187,29.1516,.2499,3.182,2.5563,5.8558,5.6924,6.4502,1.6767,.3178,3.2961,.3908,4.0027-.2619,1.7439-1.6111,1.6765-5.9758,1.6765-5.9758Z" style="fill:#b97964;"></path><path d="M283.9303,178.5316l2.2181-5.8063,2.703,8.2258s-4.3243-.4888-5.4582-1.1658" style="opacity:.3;"></path><g><path d="M306.611,166.0882c1.3509,.547,20.24939,9.0753,22.08019,7.4147,1.83081-1.6606,11.6537-15.129,10.2333-16.4479-1.9612-1.8211-18.4736-9.1406-21.5088-8.3647-2.0281,.5185-14.7605,15.7961-10.8047,17.3979Z" style="fill:#fff;"></path><path d="M317.5627,148.5228c-2.0281,.5185-15.0914,16.1605-11.1356,17.7624,.4717,.1908,3.1323,1.5187,6.5828,2.848l12.8062-18.3583c-3.888-1.4163-7.1216-2.5414-8.2534-2.2521Z" style="fill:#263238;"></path><g><path d="M326.56639,165.6831l.8379,.5244-2.4614,3.9307-.6631-.4151-.6846-3.3759c-.1709-.8286-.4263-1.1158-.7241-1.3018-.4873-.3052-.9785-.1465-1.3887,.5088-.3242,.5181-.4209,1.0615-.2256,1.5977l-.9677,.3588c-.2984-.7587-.1641-1.7036,.3847-2.5795,.7246-1.1573,1.7793-1.5372,2.7237-.9454,.51751,.3243,.8994,.7647,1.1298,1.9375l.4649,2.2735,1.5742-2.5137Z" style="fill:#263238;"></path><path d="M324.93159,158.3003l.6631,.4141,3.3726,4.996-.6626,1.0586-3.2412-4.8169-1.31149,2.0948,.90619,.5674-.5771,.9213-1.7442-1.0918,2.5947-4.1435Z" style="fill:#263238;"></path><path d="M330.457,155.1982c1.82909,1.1446,2.167,2.8414,1.19929,4.3872-.334,.5333-.7676,.9717-1.2208,1.1866l-.518-.8321c.3716-.1709,.6596-.4785,.893-.8515,.6299-1.0054,.4004-2.0288-.81049-2.7871l-.00681-.0044c.17281,.5532,.0361,1.1782-.336,1.7729-.65819,1.0508-1.79,1.4341-2.7871,.8096-1.0586-.6626-1.1904-1.9434-.5088-3.0327,.9112-1.4546,2.3828-1.7212,4.09571-.6485Zm-1.69481,.5396c-.5029-.3145-1.1475-.1665-1.5913,.542-.3857,.6172-.3018,1.2637,.2539,1.6113,.5566,.3486,1.1699,.1485,1.57521-.499,.40039-.6397,.28759-1.3252-.23781-1.6543Z" style="fill:#263238;"></path></g></g></g><g><path d="M301.5522,112.9156c-.2444-1.868-1.4359-3.7451-3.2648-4.197-1.3637-.3369-2.9322,.4726-3.4994,1.6735,.6209-3.5545,2.3153-6.9271,2.5395-10.5402,.2522-4.063-2.7822-8.9164-6.7667-8.0826-2.3053,.4825-3.8589,2.7072-4.5535,4.9576-.6947,2.2505-.7706,4.6526-1.426,6.9148-1.7282,5.9649-7.175,10.0757-12.7152,12.8816-5.5402,2.806-11.5809,4.8138-16.4108,8.7175-4.8299,3.9039-8.252,10.5043-6.1176,16.3362l6.9352,3.2695c5.5296-6.1232,13.3858-10.092,21.5955-10.9096,5.6374-.5615,11.8816,.1513,16.4217-3.2372,3.7709-2.8144,5.2468-7.6887,6.499-12.2243,.5015-1.816,1.0076-3.6917,.7631-5.5598Z" style="fill:#263238;"></path><g><path d="M254.6045,117.1237c6.984-2.6293,12.857-.6005,16.3148,1.9774,4.2838,4.0184,5.4449,9.3348,9.1283,13.9097l-35.6817-8.5812c2.6842-2.5151,3.0283-4.2657,10.2386-7.3059Z" style="fill:#263238;"></path><path d="M247.6471,121.6617c-5.8104,3.2762-6.5712,10.034-6.7126,14.1903,.4047,4.9491,2.9065,9.4889,6.8745,12.4745,3.7721,2.7046,8.3445,5.9829,11.9497,5.1063,2.0573-.4646,3.8243-1.7728,4.8692-3.6047l-3.8397-30.9979c-4.5498-.1887-9.0728,.7857-13.1411,2.8315Z" style="fill:#263238;"></path><path d="M289.57,149.7652c-1.7609,.7098-4.0468,2.3919-5.9885,.8793l-6.2572-5.4927c-.0808-.0465-.1528-.0879-.2247-.1294l-5.1772,3.3391-.0053,.0013c-1.8975,.4876-3.0406,2.421-2.5529,4.3184,.1597,.6986-1.139,.3645-.6059,.8435,.1156,.1071,1.9533,1.0877,2.0829,1.1774,4.6419,2.8516,5.2635,2.3356,4.9382,3.8429l24.9568-4.0399c-.3727-3.1401-10.047-5.1249-11.1662-4.7399Z" style="fill:#b97964;"></path><path d="M250.915,146.3248c8.8615,6.0571,12.4653,8.8081,20.1715,8.0601,11.5854-1.1401,17.1785-12.9489,10.3445-21.4898-6.1985-7.6264-19.5918-16.2756-29.4886-10.9229-9.8969,5.3528-9.8944,18.281-1.0274,24.3526Z" style="fill:#b97964;"></path><path d="M255.616,155.5419c2.5151,.4678,4.9207-.207,6.5183-1.3442,2.4028-1.7109-.1375-5.8207-2.952-6.9385-2.5337-1.0059-5.6578,.024-7.0372,2.5075-1.3588,2.4467,.5952,5.2406,3.4709,5.7752Z" style="fill:#b97964;"></path><path d="M253.61572,151.61523c-.05225,0-.10498-.01611-.1499-.0498-.11035-.08301-.13281-.23926-.05029-.3501,.65723-.87793,1.65723-1.47217,2.74268-1.62988,1.08545-.15625,2.21289,.12744,3.09375,.78271,.11084,.08252,.13379,.23926,.05127,.3501-.08301,.11182-.23877,.1333-.3501,.05127-.7749-.57666-1.76855-.8291-2.72266-.68896-.95605,.13867-1.83594,.66162-2.41455,1.43457-.04932,.06543-.12451,.1001-.2002,.1001Z" style="opacity:.2;"></path><path d="M262.3072,138.2977c.9046,.702,2.021,.8403,2.4935,.3089,.4725-.5313,.1223-1.5305-.7821-2.2324-.9043-.7019-2.0206-.8404-2.4932-.3091-.4727,.5311-.1226,1.5304,.7818,2.2326Z" style="fill:#263238;"></path><path d="M269.1477,130.3092c.878,.6782,1.9719,.7989,2.4431,.2695,.471-.5296,.1415-1.5086-.7366-2.1874-.8779-.6783-1.9717-.799-2.4429-.2693-.4715,.5292-.1415,1.5086,.7364,2.1872Z" style="fill:#263238;"></path><path d="M258.3215,136.7846c.1011-.0948,.1613-.227,.1557-.3724-.0921-2.2674,1.5367-3.3425,1.5556-3.3547,.242-.159,.3049-.4748,.1305-.7072-.1746-.2318-.5155-.2906-.763-.1319-.0856,.0559-2.1317,1.4033-2.0167,4.2176,.0116,.2803,.2658,.5027,.5676,.4966,.1455-.0035,.2757-.0592,.3703-.148Z" style="fill:#263238;"></path><path d="M267.9108,123.2766c.0429-.1065,.0401-.228-.019-.3414-.1224-.2339-.437-.344-.7023-.2466-2.66,.978-3.0456,3.0564-3.0602,3.1455-.0426,.2493,.1566,.4883,.4461,.534,.2886,.0461,.5571-.1187,.6011-.3668,.0138-.0817,.3398-1.6883,2.4553-2.4657,.1367-.0505,.234-.1463,.279-.259Z" style="fill:#263238;"></path><path d="M267.4272,131.3883s4.1754,1.3401,7.3323,1.5257c.5518,.0325,.9073,.6073,.7159,1.1257-.4927,1.3342-1.8447,2.234-1.8447,2.234l-6.2035-4.8854Z" style="fill:#a24e3f;"></path><path d="M261.2509,136.5356l1.1644-2.2674s.5267,2.2328-1.1644,2.2674Z" style="fill:#263238;"></path><path d="M268.2562,128.3449l1.1645-2.2676s.5266,2.2326-1.1645,2.2676Z" style="fill:#263238;"></path><path d="M275.617,138.56c.2924,1.305,1.234,3.4505,1.234,3.4505-.1791,.1206-.3581,.2407-.543,.3515-2.4687,1.5711-4.1331,1.4843-5.2293,.9115-.5985-.3155-1.0259-.7863-1.3173-1.2067-.3419-.4823-.4757-.9044-.4757-.9044,1.8063-.051,4.2206-1.3383,5.4812-2.08,.5311-.3049,.8501-.5224,.8501-.5224Z" style="fill:#263238;"></path><path d="M274.7669,139.0824l.3374,1.0269c-2.3287,1.4741-4.1662,2.1994-5.3429,1.9575-.3419-.4823-.4757-.9044-.4757-.9044,1.8063-.051,4.2206-1.3383,5.4812-2.08Z" style="fill:#fff;"></path><path d="M276.308,142.362c-2.4687,1.5711-4.1331,1.4843-5.2293,.9115,.8617-.5029,1.957-1.0133,3.0869-1.2011,.8634-.1471,1.573,.0228,2.1424,.2896Z" style="fill:#fd504e;"></path><path d="M255.206,144.8289s-2.1198-9.0645-6.8789-12.7099c0,0,8.8261-20.6622,23.0333-7.987,0,0-10.5429-13.3927-23.157-.3856-12.614,13.0072,4.2522,29.65,15.6151,27.8021-.0502-.0749-7.256-1.0801-8.6125-6.7196Z" style="fill:#263238;"></path><path d="M254.8562,118.4899c3.2139-.598,6.5347-.1568,9.4811,1.2595,1.8974,1.3604,1.4169,4.9273,1.4169,4.9273l-6.3999,.1882,3.635,2.6062c-4.2713,4.7601-9.156,5.7804-14.3838,4.7096l-3.0787-6.5687s6.614-6.4729,9.3294-7.1221Z" style="fill:#263238;"></path></g></g></g></g><g id="freepik--Character_1--inject-61"><g><g><path d="M174.555,316.428c.3525,1.8062,.9017,9.5097,7.2141,15.1786,5.4146,4.8627,19.1496,18.342,26.7041,16.5533,7.5546-1.7886,13.0521-7.446,7.431-14.689-5.6212-7.2429-12.5686-14.535-12.5686-14.535l-1.4184-12.3731-27.3622,9.8652Z" style="fill:#ffb5af;"></path><path d="M151.139,280.1505l23.1781,42.448s24.0296-2.3304,31.3303-13.7067c0,0-13.4069-37.3645-13.0223-45.4914,.3846-8.1268-40.7655,10.6026-41.4861,16.7501Z" style="fill:#05B2DC;"></path><path d="M151.139,280.1505l23.1781,42.448s24.0296-2.3304,31.3303-13.7067c0,0-13.4069-37.3645-13.0223-45.4914,.3846-8.1268-40.7655,10.6026-41.4861,16.7501Z" style="fill:#fff; opacity:.3;"></path><path d="M151.7798,281.324s26.4737-8.0606,40.8453-17.9236l-32.9608,32.3631-7.8845-14.4395Z" style="opacity:.3;"></path><path d="M203.9974,304.196s-3.0456,2.683-9.1246,6.8074c-6.0789,4.1244-22.4218,8.1774-22.4218,8.1774l1.8662,3.4176c25.0666-3.097,30.8222-12.572,31.3302-13.7066l-1.65-4.6958Z" style="fill:#fff; opacity:.3;"></path></g><g><path d="M195.4623,243.8032s2.4286,9.9569-2.8372,19.5972c-4.9921,9.1393-73.95747,42.1104-74.34557,40.9461s-24.83833-30.2583-24.83833-30.2583l52.8109-32.8129,49.2102,2.5279Z" style="fill:#05B2DC;"></path><path d="M195.4623,243.8032s2.4286,9.9569-2.8372,19.5972c-4.9921,9.1393-73.95747,42.1104-74.34557,40.9461s-24.83833-30.2583-24.83833-30.2583l52.8109-32.8129,49.2102,2.5279Z" style="fill:#fff; opacity:.3;"></path><path d="M174.9897,242.6626s-1.9122,5.0311-10.4195,11.8918c-8.5071,6.8606-53.2057,30.8408-53.2066,30.8413l-12.3783-14.7522-5.544,3.4447,24.83822,30.2584,6.72784-2.6907-9.90106-11.7998c6.85211-3.9238,43.4577-24.9448,51.6363-30.8811,9.0329-6.5564,14.8422-15.6721,14.8422-15.6721l-6.5951-.6403Z" style="fill:#fff; opacity:.3;"></path></g><g><path d="M133.5829,168.827s-6.98709,.2449-11.58632,13.3402c0,0-7.13828,25.4091-9.91398,25.9362-3.3041,.6276-18.7534-16.7518-18.7534-16.7518l-7.1847,3.7723s20.0407,33.019,29.95061,31.4346c6.59401-1.0542,20.48769-33.1295,20.48769-33.1295l-2.9999-24.602Z" style="fill:#ffb5af;"></path><g><path d="M91.3434,192.7265c-2.1808-1.3516-.6814-5.9244-.6814-5.9244,0,0-6.3497,2.169-6.4678,.2107-.118-1.9583,9.46-5.856,10.7907-3.8118,1.3306,2.0443-.8864,9.3228-.8864,9.3228,0,0-.5744,1.5543-2.7551,.2027Z" style="fill:#ffb5af;"></path><path d="M82.1511,190.0057c-3.2616-.0684-5.5354-4.4282-4.1724-7.1141,1.3631-2.686,8.4492-7.0543,11.3334-6.2875,2.8841,.7668,4.2973,7.748,4.2973,7.748,0,0-8.1967,5.722-11.4583,5.6536Z" style="fill:#ffb5af;"></path><path d="M91.298,184.039c2.313,1.1889,2.9473,7.965,2.9473,7.965,0,0-5.4319,5.8305-9.3091,3.6121-3.8773-2.2184-2.611-6.8964-2.611-6.8964,0,0,6.6598-5.8697,8.9728-4.6807Z" style="fill:#ffb5af;"></path><path d="M87.4273,187.0875c-.7116,1.2047-.6139,2.7109,.2502,3.8555l.0073,.007c.1278,.1263,.1265,.3253-.0029,.4446-.0814,.0798-.2022,.1109-.3167,.0816-.0582,.0034-.1164-.01-.1672-.0385-1.0376-1.2616-1.2215-2.9698-.4704-4.3696-1.1479,1.294-2.6053,2.3039-4.2537,2.9475-.0669,.001-.1333-.0143-.193-.0444-.1073-.0257-.1963-.0988-.2391-.1966-.069-.1689,.0165-.3563,.1913-.4195,.3807-.1501,.7506-.3229,1.1078-.5174-2.0005-1.0547-3.316-3.0059-3.4832-5.1661-.0125-.1767,.1243-.3278,.3087-.3409,.1883-.0061,.3498,.1347,.3609,.3148,.0044,.0396,.2968,3.7117,3.5162,4.7874h0c.8306-.4841,1.5642-1.1036,2.1684-1.8311-3.3017-1.365-3.6427-5.0611-3.6061-5.2201h0c-.0117-.1769,.1288-.3261,.3137-.3333s.3442,.1303,.3559,.3072c-.0041,.0763,.2847,3.5287,3.2931,4.6974,.0493-.0632,.0921-.131,.1278-.2023,.0672-.9374,.6594-1.7559,1.5491-2.141-1.3074-1.0862-1.9652-3.8768-2.0335-4.2273-.0386-.1726,.0718-.3405,.25-.3801,.1829-.0306,.361,.0847,.4007,.2596,.2045,.9353,.9669,3.3895,2.0171,4.0046,1.047-.493,2.148-.8783,3.2845-1.1494,.1777-.0409,.3596,.0644,.4064,.2352,.0467,.1707-.0595,.3422-.2372,.3831-1.3754,.3271-5.2665,1.5815-5.0001,3.0718,.0502,.2694,.2163,.5086,.4578,.659,1.102,.7428,3.77,.5072,4.7133,.351,.1844-.0215,.358,.0971,.3979,.2718l.0015,.0087c.0281,.1722-.0948,.3303-.2744,.3533-1.3392,.2186-2.7126,.216-4.0611-.0078-.4055-.0819-.7928-.2366-1.141-.4557h0Z" style="isolation:isolate; opacity:.2;"></path></g></g><path d="M186.4829,335.8899l16.8527-16.954c2.5675,2.665,5.6523,6.1867,8.9491,10.0594l-15.6339,15.3294c-3.7208-2.6279-7.1569-5.4137-10.1679-8.4348Z" style="fill:#263238;"></path><path d="M186.4829,335.8899l16.8527-16.954c2.5675,2.665,5.6523,6.1867,8.9491,10.0594l-15.6339,15.3294c-3.7208-2.6279-7.1569-5.4137-10.1679-8.4348Z" style="fill:#fff; opacity:.3;"></path><path d="M195.7198,343.4843c.36-.1579,15.2665-15.7126,15.2665-15.7126,0,0,15.1497,10.4592,4.3381,19.0873-9.0344,7.2098-19.6046-3.3747-19.6046-3.3747Z" style="fill:#263238;"></path><g><path d="M206.54079,324.87978c4.58606,7.94123,10.51633,14.67437,17.68232,20.38294,4.4558,3.54958,9.15817,6.77676,13.90701,9.91824,3.35095,2.21674,7.64701,2.16604,11.53694,2.21087,5.12747,.05908,10.28658-.05444,15.4121-.20355,5.9839-.17408,12.45849-.82565,18.00546,1.94013,5.0513,2.51863,7.3678,7.38393,7.18816,12.90702-.17952,5.5193-2.6192,10.79432-5.82284,15.201-7.98746,10.98691-21.0227,16.53513-33.11142,21.70868-1.7696,.75733-.24303,3.34243,1.51416,2.59041,11.27966-4.8273,22.97793-9.92307,31.33336-19.24706,3.72017-4.15141,6.71577-9.03757,8.19889-14.44207,1.43862-5.24234,1.3744-11.44274-1.75586-16.09233-3.11948-4.63357-8.50481-6.80479-13.87443-7.46603-3.47718-.42819-6.98139-.25956-10.47181-.13886-2.73471,.09457-5.47082,.0842-8.20641,.14153-4.81285,.10086-9.79559,.45021-14.57623-.26839-2.21411-.33281-3.53642-1.21262-5.39653-2.45592-2.45977-1.64411-4.90129-3.31665-7.29758-5.0523-4.46576-3.23458-8.77471-6.71658-12.57046-10.72874-3.55058-3.75301-6.52382-7.95117-9.10441-12.41972-.96522-1.67138-3.55864-.16243-2.59041,1.51416h0Z" style="fill:#263238;"></path><path d="M251.0231,411.2199s-6.2977-4.9187-3.2087-7.5756c3.0891-2.657,20.5209-4.9619,31.4945-13.9078,11.124-9.0684,12.469-18.0938,12.469-18.0938,0,0,1.0636,9.7674-11.0377,22.0408s-29.7171,17.5364-29.7171,17.5364Z" style="fill:#263238;"></path></g><path d="M144.7313,242.2202s18.8674,3.7184,31.4514,3.2048c12.5839-.5137,19.2796-1.6218,19.2796-1.6218l-49.7901-2.1676-.9409,.5846Z" style="opacity:.3;"></path><path d="M141.0475,163.5097s-12.6968,6.778-12.38053,7.8623c.71391,2.4477,5.30825,27.3609,10.92863,43.9875,5.6618,16.7489,7.4369,17.4045,7.4369,17.4045,0,0-6.8819,6.3403-3.2049,8.5465,1.7805,1.0683,51.6347,2.4927,51.6347,2.4927l-6.8768-57.4024s-11.5995-32.7038-16.2289-33.4161c-4.6293-.7122-18.5582,4.998-18.5582,4.998l-12.7509,5.527Z" style="fill:#263238;"></path><g><path d="M95.4247,276.4521c-1.5791,.9451-8.638,4.0785-11.8255,11.9412-2.7342,6.7445-10.7463,24.2416-6.4978,30.7393,4.2486,6.4977,11.437,9.7466,16.3398,1.9993s9.4012-16.7587,9.4012-16.7587l11.1556-5.5371-18.5733-22.384Z" style="fill:#ffb5af;"></path><polygon points="81.1719 294.2819 102.8424 304.3732 96.4212 316.2073 76.6926 306.7104 81.1719 294.2819" style="fill:#263238;"></polygon><polygon points="81.1719 294.2819 102.8424 304.3732 96.4212 316.2073 76.6926 306.7104 81.1719 294.2819" style="fill:#fff; opacity:.3;"></polygon><path d="M77.1667,305.5493c.2709,.2849,19.9643,9.0211,19.9643,9.0211,0,0-4.691,17.8018-16.4787,10.564-9.85-6.048-3.4856-19.5851-3.4856-19.5851Z" style="fill:#263238;"></path><g><path d="M97.87699,312.91972c-4.4628,7.68775-7.3455,15.91843-8.75345,24.69092-.85078,5.30093-1.32151,10.65692-1.68504,16.01059-.1392,2.04993-.2885,3.85518,.36469,5.82551,.68987,2.08095,1.70547,4.06343,2.74617,5.98672,2.32981,4.30567,4.96104,8.44779,7.43648,12.67014,3.03913,5.18385,6.85526,10.14263,8.02481,16.16925,.56418,2.90722,.40275,6.06077-.99255,8.71981-1.13888,2.17038-2.91506,3.91352-4.96899,5.22525-4.76377,3.04234-10.64197,3.84941-16.19141,3.44223-14.02173-1.0288-25.74926-9.86745-36.57713-18.01796-1.54279-1.16131-3.03955,1.4422-1.51416,2.59041,9.95205,7.49126,20.38097,15.23558,32.86681,17.71325,5.85586,1.16202,12.13913,1.21475,17.84012-.73474,4.86753-1.66449,9.50471-4.85094,11.60418-9.70004,2.47856-5.72466,.84274-12.12459-1.87125-17.44347-1.43299-2.80838-3.18218-5.43676-4.82033-8.12596-1.34652-2.21045-2.6302-4.45984-3.96688-6.67666-2.41973-4.013-5.23832-8.13653-6.72304-12.61574-.69315-2.09114-.32103-4.18301-.16473-6.35629,.20496-2.84982,.44608-5.6977,.76508-8.5372,.59308-5.27926,1.4904-10.54247,3.05386-15.62776,1.47826-4.8082,3.59463-9.3487,6.11717-13.6941,.97115-1.67293-1.62046-3.18503-2.59041-1.51416h0Z" style="fill:#263238;"></path><path d="M45.14,394.4949s1.1301-7.9105,4.9724-6.5545c3.8422,1.3561,14.6941,15.799,28.119,20.2958,14.7514,4.941,21.5229,1.8981,21.5229,1.8981,0,0-7.9412,5.7855-24.6103,1.4015s-30.004-17.0409-30.004-17.0409Z" style="fill:#263238;"></path></g></g><path d="M149.5731,232.0443c-.6787-.181,35.304,0,35.304,0,0,0-21.1676,3.7697-35.304,0Z" style="opacity:.3;"></path><path d="M139.8081,195.5452l6.5439,24.6144c.3077,1.1574,1.3759,1.9474,2.5727,1.9026l22.9835-.8604c1.6439-.0615,2.8064-1.6281,2.3817-3.2173-1.6639-6.2251-5.3747-20.1056-6.7796-25.341-.3178-1.1842-1.4291-1.9757-2.6522-1.8909l-22.7503,1.5773c-1.6064,.1113-2.7134,1.6591-2.2997,3.2153Z" style="fill:#fff;"></path><g><path d="M151.605,208.1377l.2612,8.5518-1.5884,.0478-.2207-7.2207-1.8081,.0557-.0405-1.3311,3.3965-.1035Z" style="fill:#263238;"></path><path d="M159.5566,213.8867c.0445,1.4414-1.0053,2.7207-3.3022,2.791-1.209,.0362-2.4292-.2929-3.2427-.8925l.6465-1.2539c.626,.4941,1.5649,.7958,2.5298,.7656,1.1362-.0342,1.7934-.5547,1.769-1.3496-.0234-.7696-.601-1.253-1.896-1.2129l-.7817,.0234-.0337-1.0879,1.8721-2.3681-3.8848,.1181-.0405-1.331,5.8271-.1778,.0323,1.0625-2.001,2.5313c1.6191,.1582,2.4668,1.0996,2.5058,2.3818Z" style="fill:#263238;"></path><path d="M168.2368,214.2451l-1.5151,.0459,.0596,1.9424-1.5391,.0469-.0596-1.9424-4.6914,.1435-.0337-1.0996,4.0469-5.6386,1.6982-.0518-3.81,5.3857,2.7978-.0849-.0527-1.7217,1.4902-.0459,.0528,1.7217,1.5151-.0459,.041,1.3447Z" style="fill:#263238;"></path></g><g><path d="M143.4157,156.9114l.9231,8.7558,12.0326-7.7961c-2.5313-1.2804-3.4153-6.2116-3.5213-12.8681l-9.4344,11.9084Z" style="fill:#ffb5af;"></path><g><g><g><g><path d="M143.1656,155.8861l7.5394-5.6557c-.06,3.0672-.6321,6.7873-6.9067,10.2349,0,0-.2267-3.3528-.6327-4.5792Z" style="opacity:.2;"></path><g><path d="M120.18533,125.5449c-.87474,4.1801,2.55442,13.0182,7.94999,9.75,5.39578-3.268-6.44653-16.9351-7.94999-9.75Z" style="fill:#263238;"></path><path d="M151.7537,128.7298c1.6544,10.3585,2.7963,16.1671-1.2138,22.5192-6.0318,9.5547-19.38974,7.7459-24.11863-1.938-4.25635-8.7164-6.2469-24.1913,2.8885-30.4002,9.00013-6.1171,20.78943-.5392,22.44393,9.819Z" style="fill:#ffb5af;"></path><path d="M152.9123,113.8284c-5.8511-7.8028-19.39354,.0988-22.69278,3.8562-.493,.5616,8.80358,2.8938,8.25548,2.8221l4.2396,.4821c.5761-.27,1.9247,.1724,2.9624,1.9182,0,0,.9149,11.1543,6.367,14.6977,3.981-3.0393,4.2159-4.8087,4.5152-8.7572,.4458-5.883-.773-11.3234-3.6469-15.0191Z" style="fill:#263238;"></path><path d="M157.6914,136.3466c-.2292,2.8134-1.7441,5.2479-3.5464,6.7075-2.711,2.1955-5.4793,.101-5.9091-3.1829-.3873-2.9556,.5569-7.6598,3.8469-8.5774,3.2418-.9039,5.8707,1.8364,5.6086,5.0528Z" style="fill:#ffb5af;"></path><path d="M137.7868,134.9465c.2336,1.0455-.1333,2.0118-.8193,2.1582-.6859,.146-1.4316-.5832-1.665-1.629-.2338-1.0457,.1331-2.0116,.8191-2.1579,.686-.1461,1.4313,.583,1.6652,1.6287Z" style="fill:#263238;"></path><path d="M127.57715,137.4411c.2339,1.0454-.13308,2.0115-.81906,2.158-.68588,.1461-1.43133-.5831-1.66513-1.6288-.23369-1.0456,.13308-2.0118,.81906-2.1579,.68608-.1461,1.43165,.5831,1.66512,1.6287Z" style="fill:#263238;"></path><path d="M130.78423,136.116s-2.14969,5.935-2.73812,8.2876c1.74896,.9896,4.12062-.1764,4.12062-.1764l-1.3825-8.1112Z" style="fill:#ff726e;"></path><path d="M139.2421,129.4471c-.1434,.0999-.3359,.1219-.5065,.0407-2.0294-.9618-3.6217-.0257-3.6379-.0161-.23692,.1429-.54728,.0682-.69259-.167-.145-.2353-.06939-.5427,.16598-.6856,.08342-.0511,2.07861-1.2248,4.59621-.0308,.2514,.1193,.3586,.4173,.2394,.6658-.0385,.0806-.0959,.1453-.1646,.193Z" style="fill:#263238;"></path></g><path d="M150.74414,138.52002c-.18896,0-.35156-.14258-.37256-.33496-.104-.96875,.04834-1.95215,.44043-2.84375,.26758-.6084,.76855-1.42432,1.63525-1.854,.86279-.42969,1.90674-.31299,2.53711,.28271,.15039,.14209,.15674,.37939,.01465,.53027-.14209,.15039-.37842,.15674-.53027,.01465-.40039-.37793-1.11084-.44385-1.68799-.15576-.66553,.33008-1.06445,.98926-1.28223,1.48389-.33936,.77197-.47119,1.62354-.38086,2.46191,.02197,.20605-.12695,.39062-.33301,.41309-.01367,.00146-.02734,.00195-.04053,.00195Z" style="opacity:.2;"></path></g><path d="M122.06643,134.0383c-.09523,.0006-.19172-.0259-.27819-.0823-.23263-.1518-.30065-.463-.1509-.6946,1.49966-2.3239,3.80542-2.3255,3.90845-2.339,.27661,.0014,.5027,.2264,.50449,.5033,.00169,.276-.21871,.4987-.49342,.5002-.09618-.0038-1.87213,.0206-3.0761,1.8857-.09396,.1461-.25225,.2258-.41433,.2267Z" style="fill:#263238;"></path></g><path d="M145.1103,113.7452c-2.8274-3.6851-7.6889-5.2801-11.67537-3.831-2.52405,.9177-4.57356,2.8708-6.81435,4.4114-2.24059,1.5405-4.97249,2.7059-7.58786,1.8243-1.28823-.4342-2.80962-1.3061-3.79826-.3779-.66306,.6227-.66316,1.8246-.24366,2.7183,.41924,.8936,1.15837,1.551,1.87451,2.1782-1.03134,.2313-2.06261,.4625-3.09381,.6936,1.33673,3.0525,4.16818,5.1189,7.10994,5.9662,2.94164,.847,6.0014,.6223,8.95033,.1387,3.53061-.5791,7.05743-1.5481,10.04913-3.5968,2.9919-2.0486,5.4133-5.3,6.0098-9.1939l-.7804-.9311Z" style="fill:#263238;"></path><path d="M139.7384,108.8397c-1.9071-.9931-4.2283-1.1566-6.25581-.4409-1.86917,.6598-3.41101,1.9907-5.10915,3.0129-1.69834,1.0221-3.79119,1.7492-5.64529,1.0482-1.00666-.3806-2.2351-1.1217-3.00523-.3701-.58507,.5707-.32502,1.5726,.13477,2.2479,1.13627,1.6682,3.29956,2.5685,5.28378,2.1991l18.54543-2.8246c-.5764-2.0715-2.0414-3.8794-3.9485-4.8725Z" style="fill:#263238;"></path></g><path d="M136.17334,147.90479c-.2168,0-.4165-.1416-.47998-.36035-.07715-.26514,.0752-.54248,.34033-.61963,1.73438-.50488,3.10449-2.03955,3.40918-3.81982,.04639-.27197,.30078-.45312,.57715-.4082,.27197,.04639,.45508,.30469,.4082,.57715-.36768,2.14893-2.02148,4.00195-4.11523,4.61084-.04639,.01367-.09375,.02002-.13965,.02002Z" style="fill:#263238;"></path></g><path d="M141.0475,163.5097s-.1374,17.8314,8.5161,14.1365c8.6536-3.6949,10.5072-21.9454,10.5072-21.9454l-4.507,1.5858-14.5163,6.2231Z" style="fill:#ffb5af;"></path></g><g><path d="M171.1644,153.2858c-1.6598,1.0344-2.6595,2.8626-2.7891,4.814-.2891,4.3507-.1735,13.3881,3.9604,18.9811,5.2536,7.1078,16.2498,9.3199,16.2498,9.3199l-2.0689-14.704,25.9684,2.2357,7.3924,34.4804,8.3379,2.1141s3.0246-43.4555-9.2158-50.4428c-15.0151-8.5711-43.8064-7.4983-46.0457-7.4167-.622,.0226-1.2323,.2711-1.7894,.6183Z" style="fill:#ffb5af;"></path><g><path d="M222.1237,209.5541c.7292,2.4599-3.4322,4.8768-3.4322,4.8768,0,0,6.1839,2.6043,4.9694,4.145s-10.9588-1.9203-10.5925-4.3319c.3663-2.4115,6.8633-6.3713,6.8633-6.3713,0,0,1.4628-.7784,2.192,1.6814Z" style="fill:#ffb5af;"></path><path d="M227.1773,217.7004c2.3898,2.2207,1.1874,6.9886-1.617,8.0873-2.8045,1.0988-11.0012-.3533-12.6446-2.8444-1.6434-2.4912,1.9453-8.6438,1.9453-8.6438,0,0,9.9265,1.1802,12.3163,3.4009Z" style="fill:#ffb5af;"></path><path d="M216.3786,216.0986c-.9361-2.4264,3.0978-7.9078,3.0978-7.9078,0,0,7.9343-.7401,9.3535,3.4955,1.4193,4.2356-1.0598,10.4951-1.0598,10.4951,0,0-10.4554-3.6565-11.3915-6.0828Z" style="fill:#ffb5af;"></path></g><polygon points="186.5166 171.6968 179.7679 172.0058 187.823 180.9818 186.5166 171.6968" style="opacity:.3;"></polygon></g><path d="M167.5103,192.6435c-.3178-1.1842-1.429-1.9757-2.6522-1.8909l-22.7503,1.5773c-1.6064,.1113-2.7134,1.659-2.2997,3.2152l2.0324,7.645,.0001,.0001,28.1048-1.4532c-.9897-3.6991-1.8879-7.0543-2.4351-9.0935Z" style="fill:#05B2DC;"></path><path d="M93.4413,277.5637c-.1564,.0911,16.8583,23.1082,16.8583,23.1082l3.6984-1.8358-18.5733-22.384-1.9834,1.1116Z" style="opacity:.3;"></path><path d="M105.57007,264.3802c5.4826-3.68881,10.98902-7.34207,16.4716-11.0309,.39838-.26804,.02341-.91805-.37854-.6476-5.48258,3.68883-10.989,7.34209-16.4716,11.0309-.39838,.26804-.02341,.91805,.37854,.6476h0Z" style="fill:#05B2DC;"></path></g></g><g id="freepik--Character_3--inject-61"><g><g><path d="M512.29785,400.74219c-.36816,0-.71289-.20508-.88574-.53516-.93262-1.27832-15.24023-16.11328-16.81543-17.44043-2.03125-.71289-27.14551-9.38086-40.5459-14.00488-.52246-.17969-.79883-.74902-.61914-1.27148s.74902-.79883,1.27148-.61914c1.63965,.56543,40.16016,13.85742,40.71582,14.06543,.90625,.33789,17.5791,17.64746,17.83789,18.52148,.15625,.5293-.14551,1.08594-.6748,1.24316-.09473,.02832-.19043,.04102-.28418,.04102Z" style="fill:#263238;"></path><path d="M545.07422,412.54688c-.12402,0-.24902-.02246-.37012-.07129l-23.66699-9.44043-39.63477-.23926c-4.51855-.02734-8.68359-2.46289-10.87012-6.35352-.19727-.35352-.31543-.53027-.37695-.61328-.28809-.17578-.48145-.49316-.48145-.85547,0-.55273,.44727-1,1-1,.71289,0,1.11426,.61719,1.60254,1.48926,1.83496,3.26562,5.33691,5.30957,9.1377,5.33301l39.82422,.24023c.125,.00098,.24902,.02539,.36426,.07129l23.8418,9.51074c.51367,.2041,.76367,.78613,.55859,1.29883-.15625,.3916-.53223,.62988-.92871,.62988Zm-74.40332-16.57324h0Z" style="fill:#263238;"></path><g><polygon points="510.27979 397.3218 366.75429 397.9574 366.75429 381.5523 495.39489 381.5523 510.27979 397.3218" style="fill:#263238;"></polygon><polygon points="380.36559 381.5523 382.67639 397.9574 388.21429 397.9574 385.74049 381.5523 380.36559 381.5523" style="opacity:.5;"></polygon><path d="M544.55479,445.4267c-19.3233,0-35.04379-15.7205-35.04379-35.0421,0-19.3233,15.72049-35.0438,35.04379-35.0438,19.3216,0,35.0421,15.7205,35.0421,35.0438,0,19.3216-15.7205,35.0421-35.0421,35.0421Zm0-63.5533c-15.7205,0-28.5112,12.7907-28.5112,28.5112s12.7907,28.5096,28.5112,28.5096,28.5096-12.7892,28.5096-28.5096-12.7892-28.5112-28.5096-28.5112Z" style="fill:#263238;"></path><rect x="544.82907" y="378.08658" width=".99908" height="63.52214" transform="translate(-136.39007 384.98734) rotate(-34.83861)" style="fill:#263238;"></rect><rect x="513.5679" y="408.87598" width="63.52143" height=".99999" transform="translate(-131.01277 496.17645) rotate(-44.20867)" style="fill:#263238;"></rect><rect x="512.79349" y="409.88354" width="63.52142" height="1.0005" transform="translate(84.94938 914.08761) rotate(-84.62329)" style="fill:#263238;"></rect><rect x="544.8284" y="378.62245" width="1.00043" height="63.52268" transform="translate(119.05995 943.38771) rotate(-88.31208)" style="fill:#263238;"></rect><polygon points="399.24289 381.5523 405.92059 397.9574 441.00319 397.6286 432.00539 381.5523 399.24289 381.5523" style="fill:#05B2DC;"></polygon><polygon points="435.82219 381.5523 444.99309 397.6109 451.11229 397.6109 441.86089 381.5523 435.82219 381.5523" style="fill:#05B2DC;"></polygon><g><path d="M455.05982,358.96677h1.91907c.83644,0,1.51553,.67908,1.51553,1.51553v14.66846c0,.83645-.67909,1.51554-1.51554,1.51554h-1.9192c-.83642,0-1.5155-.67907-1.5155-1.5155v-14.6684c0-.8365,.67913-1.51563,1.51563-1.51563Z" transform="translate(-49.77966 663.46838) rotate(-69.19632)" style="fill:#263238;"></path><path d="M455.05982,358.96677h1.91907c.83644,0,1.51553,.67908,1.51553,1.51553v14.66846c0,.83645-.67909,1.51554-1.51554,1.51554h-1.9192c-.83642,0-1.5155-.67907-1.5155-1.5155v-14.6684c0-.8365,.67913-1.51563,1.51563-1.51563Z" transform="translate(-49.77966 663.46838) rotate(-69.19632)" style="fill:#fff; opacity:.3;"></path></g><g style="opacity:.2;"><path d="M544.55479,445.4267c-19.3233,0-35.04379-15.7205-35.04379-35.0421,0-19.3233,15.72049-35.0438,35.04379-35.0438,19.3216,0,35.0421,15.7205,35.0421,35.0438,0,19.3216-15.7205,35.0421-35.0421,35.0421Zm0-63.5533c-15.7205,0-28.5112,12.7907-28.5112,28.5112s12.7907,28.5096,28.5112,28.5096,28.5096-12.7892,28.5096-28.5096-12.7892-28.5112-28.5096-28.5112Z"></path></g><circle cx="544.55399" cy="409.37577" r="8.2483" transform="translate(-123.73907 277.043) rotate(-25.73391)" style="fill:#263238;"></circle><circle cx="544.55399" cy="409.37577" r="8.2483" transform="translate(-123.73907 277.043) rotate(-25.73391)" style="fill:#fff; opacity:.3;"></circle></g></g><g><path d="M383.30849,265.7567s-4.2011,6.3704-5.9193,12.8223c-1.7183,6.4519-1.4065,14.1863-1.4065,14.1863l5.2196-8.2279,2.1062-18.7807Z" style="fill:#263238;"></path><g><g><g><g><path d="M368.43929,303.175s5.8323-5.0715,11.1688-18.021c.0095-.0108,.7591,.1848,.7685,.1739,.7528-1.8058,1.3891-3.5221,1.9068-5.0366,.0174-.0419,.0272-.0529,.0272-.0529l7.2979,20.3627c-3.01949,3.0941-6.994,10.5562-8.4624,13.8748,0,0-2.1467,6.4193-8.93209,1.3648-4.95821-3.6932-3.77471-12.6657-3.77471-12.6657Z" style="fill:#fdad6d;"></path><path d="M386.085,305.5271l-6.79221-8.4686c-1.30179,3.1743-1.4563,8.0434,4.1074,12.8868,0,0,1.7232-3.34,2.68481-4.4182Z" style="opacity:.2;"></path></g><g><path d="M419.37259,283.6705c-.9602,4.6786-6.1959,12.4777-10.2807,6.7255s11.9314-14.7676,10.2807-6.7255Z" style="fill:#263238;"></path><path d="M387.77179,273.1603c-6.3021,9.8949-10.0563,15.3485-8.7643,23.6497,1.9434,12.4869,16.4558,16.568,25.6134,8.7318,8.2425-7.0532,17.164-22.0497,10.5486-32.4822-6.51749-10.2784-21.0957-9.7942-27.3977,.1007Z" style="fill:#fdad6d;"></path><path d="M394.33639,260.8871c5.0939-4.2747,18.7287,5.1871,20.4442,10.5099,.25641,.7953-10.3207-.9436-9.7265-.7734l-4.565-1.3899c-.4713-.5331-2.0523-.6784-3.8928,.6519,0,0-5.8971,11.0404-13.0674,12.2532-2.7346-4.8884-2.6423-7.388-1.1943-11.5732,2.15741-6.2357,7.7659-8.3386,12.0018-9.6785Z" style="fill:#263238;"></path><path d="M399.82709,285.7508c-.7044,.9692-.7576,2.1237-.1184,2.5788,.6389,.4549,1.72831,.038,2.4327-.9314,.7045-.9692,.75761-2.1238,.11861-2.5786-.639-.4551-1.72811-.038-2.43291,.9312Z" style="fill:#263238;"></path><path d="M408.67729,292.916c-.7047,.969-.7577,2.1235-.1188,2.5786,.6391,.4549,1.7283,.038,2.433-.9313,.70451-.9693,.7576-2.1237,.1186-2.5786-.6393-.4549-1.7284-.0381-2.4328,.9313Z" style="fill:#263238;"></path><path d="M406.00859,290.0611s-.432,7.0464-.8738,9.7223c-2.23479,.2381-4.1505-2.0128-4.1505-2.0128l5.0243-7.7095Z" style="fill:#e97f3f;"></path><path d="M399.85909,280.5105c.1028,.1662,.2904,.2746,.5016,.267,2.5102-.0852,3.7284,1.5834,3.7405,1.6003,.1797,.252,.5314,.3133,.785,.1365,.2535-.1769,.3126-.5259,.1347-.7772-.0631-.0894-1.58889-2.181-4.7034-2.0745-.3108,.0104-.5533,.2688-.5416,.5766,.0038,.0999,.0338,.1919,.0832,.2713Z" style="fill:#263238;"></path></g></g><path d="M415.87869,291.8039c.0976,.0429,.20831,.0587,.3221,.0393,.3063-.0526,.5145-.3417,.4637-.6457-.5059-3.0516-2.87149-4.0782-2.9714-4.1378-.2847-.1215-.6167,.0089-.7415,.2922-.12459,.2826,.003,.6091,.2841,.7328,.10031,.0389,1.912,.8532,2.3186,3.3024,.0315,.1917,.1586,.3438,.3244,.4168Z" style="fill:#263238;"></path></g><path d="M425.33189,295.689s-4.3953,.5541-7.5585-.9719c-1.2883-.6216-5.7683-5.6724-5.7683-5.6724,0,0-12.4444-14.9112-14.91409-14.954-2.46981-.0431-8.63931,7.7983-8.63931,7.7983l-.4435-.1922-8.44119-2.5111s.837-4.4549,1.59139-7.6502c.7545-3.1954,2.6659-10.5473,2.6659-10.5473l19.7445,10.2738,21.7631,24.427Z" style="fill:#263238;"></path><path d="M425.33189,295.689c-.003,.0034-.2-.6732,.418-1.1598,3.7298-2.9366,3.4048-21.5167-9.3317-31.928-15.223-12.4436-28.4557-4.8986-31.1193-3.3059l-1.4746,1.6929s15.6356,8.6752,17.2804,10.1079c4.9248,4.2896,15.508,17.9589,19.6362,21.8778,3.4477,3.273,4.591,2.7151,4.591,2.7151Z" style="fill:#05B2DC;"></path><g><path d="M378.29239,278.3375c-1.0152,2.9892-.5426,6.1611,.6582,8.46,1.8061,3.4583,5.5782,2.5393,7.4791-.6396,1.711-2.8613,2.8332-8.1086-.1355-10.5128-2.9249-2.3685-6.8409-.7249-8.0018,2.6924Z" style="fill:#fdad6d;"></path><path d="M384.62207,283.39648c-.02051,0-.04199-.00488-.06152-.0166-.06055-.0332-.08105-.11035-.04688-.16992,.49023-.86621,.74707-1.84961,.74121-2.84277-.00391-.65332-.13281-1.5791-.72559-2.28125-.5498-.65332-1.42578-.92969-2.12695-.67773-.06445,.02441-.13574-.00879-.16016-.07422-.02344-.06543,.00977-.13672,.07422-.16016,.79883-.29297,1.78516,.01758,2.4043,.75,.64062,.75977,.78027,1.74707,.78418,2.44141,.00586,1.03711-.26172,2.06348-.77441,2.96777-.02246,.04102-.06543,.06348-.1084,.06348Z" style="opacity:.2;"></path></g><path d="M392.93209,259.664c3.7804,.0373,6.2992,2.0168,9.6924,4.188,7.6759,4.9119,15.0908,11.1018,19.03,19.1072,.3106,.6313,2.9569,5.5907,2.3864,6.1348-.6558,.6255-3.0991-3.8402-3.4472-4.3347-1.7946-2.5498-3.7523-5.0024-5.8505-7.3386-4.1968-4.6729-8.9585-8.8797-14.1173-12.4685-1.4283-.9936-2.8874-1.94-4.37289-2.8355-.99191-.5978-3.38281-1.8802-3.32091-2.4527Z" style="opacity:.3;"></path><path d="M419.02059,273.3309c-.9252-1.2332-1.69459-2.0408-2.5028-3.3536-.0737-.1193-.1469-.2652-.0892-.393,.061-.1346,.2333-.1717,.3811-.1774,.8925-.0344,1.7305,.4377,2.4149,1.0117,1.6578,1.3902,2.5566,2.908,3.0478,5.015,.1094,.4696,.2685,1.7031,.0668,2.1409-.4679,1.0159-1.1857-.3518-1.5169-.8918-.6602-1.0766-1.1334-2.4609-1.8017-3.3518Z" style="opacity:.3;"></path><path d="M404.90109,259.8045c.6385,.0179,1.2514,.2443,1.8408,.4903,1.0838,.4524,2.3233,1.0118,3.3263,1.7388,1.3744,.822,2.6251,1.7975,3.6965,2.9274,.307,.3235,.4649,1.2115,.0892,1.4518-.2278,.1457-.5257,.0239-.7656-.1005-2.93629-1.5224-5.76129-3.2589-8.4457-5.1915-.3244-.2336-.6875-.6035-.527-.9696,.1223-.2786,.48141-.3553,.7855-.3467Z" style="opacity:.3;"></path><path d="M390.83219,279.0751s-9.5748,17.552-9.1654,19.23c1.6971,6.954,5.5688,9.7541,5.5688,9.7541,0,0-.8152,.3772-2.8287-1.7268-2.6681-2.7881-4.48789-4.268-4.9474-8.4769-.2638-2.4171,4.899-10.2701,5.7558-12.9523,.85671-2.6823,3.1636-7.4461,3.1636-7.4461l2.4533,1.618Z" style="fill:#263238;"></path><polygon points="381.074 295.4896 377.83379 288.3981 378.84549 286.5746 381.86159 292.9717 381.074 295.4896" style="fill:#263238;"></polygon></g><path d="M396.69824,298.86914c-.06738,0-.13574-.01367-.20117-.04199-3.61816-1.59277-2.68652-5.18359-2.67676-5.21973,.07227-.26465,.3457-.41992,.6123-.35059,.26562,.07227,.42383,.3457,.35254,.6123-.0293,.11328-.7041,2.80176,2.11426,4.04199,.25293,.11133,.36816,.40625,.25684,.65918-.08301,.1875-.26562,.29883-.45801,.29883Z" style="fill:#263238;"></path></g><g><path d="M368.40269,293.4409s6.4338,.4125,7.5941,3.5064c1.16021,3.0938,7.76921,17.9821,3.2046,31.2635-2.6033,7.5747-8.8509,19.476-28.44539,28.9639-19.59461,9.4879-27.50161-10.3175-27.50161-10.3175l-19.52539-8.009,34.85769-32.413,29.816-12.9943Z" style="fill:#05B2DC;"></path><path d="M368.40269,293.4409s6.4338,.4125,7.5941,3.5064c1.16021,3.0938,7.76921,17.9821,3.2046,31.2635-2.6033,7.5747-8.8509,19.476-28.44539,28.9639-19.59461,9.4879-27.50161-10.3175-27.50161-10.3175l-19.52539-8.009,34.85769-32.413,29.816-12.9943Z" style="fill:#fff; opacity:.6;"></path><path d="M350.29259,346.5757s7.0945-8.403,10.0555-9.7212c2.96091-1.3181,9.4162,6.8927,9.4162,6.8927,.03871,.1553-6.9117,6.8941-11.6488,9.3841l-7.8229-6.5556Z" style="fill:#fff; opacity:.6;"></path><path d="M341.37429,311.3309c.3293,.8233,4.4789,17.4535,18.705,12.6785,14.2261-4.775,23.1438-33.7127,.8198-34.3099-22.324-.5971-19.5248,21.6314-19.5248,21.6314Z" style="fill:#fdad6d;"></path><path d="M342.084,313.1735l11.49729,.0353s-6.0498,4.6574-11.0465,4.0404c-4.9967-.6171-10.148-5.0852-10.148-5.0852l9.69721,1.0095Z" style="opacity:.2;"></path><path d="M327.24766,339.71687l17.71948-14.95177,2.52562-2.13113c.36936-.31167-.16346-.8399-.53033-.53033l-17.71948,14.95177-2.52562,2.13113c-.36936,.31167,.16346,.8399,.53033,.53033h0Z" style="fill:#263238;"></path></g><g><circle cx="323.56722" cy="397.95737" r="59.10911" transform="translate(-186.62771 345.35559) rotate(-45)" style="fill:#263238;"></circle><circle cx="323.56722" cy="397.95737" r="59.10911" transform="translate(-186.62771 345.35559) rotate(-45)" style="opacity:.2;"></circle><circle cx="323.56722" cy="398.07157" r="52.42951" transform="translate(-186.70847 345.38904) rotate(-45)" style="fill:#fff; opacity:.3;"></circle><circle cx="323.25439" cy="398.8219" r="37.0937" style="fill:#263238;"></circle><path d="M355.34249,399.0396c-.07081,13.36927-8.54633,25.63107-21.17228,30.18494-12.59687,4.54338-27.01125,.6093-35.58338-9.65964-8.62766-10.33548-9.79321-25.45746-2.87255-37.0028,6.92582-11.55394,20.73174-17.65813,33.94143-14.973,12.95124,2.63259,23.21254,13.33185,25.29158,26.38537,.267,1.6764,.38622,3.36844,.3952,5.06514,.00256,.48247,.75256,.48349,.75,0-.07204-13.6032-8.62858-26.03403-21.41097-30.79382-12.99915-4.8405-28.05769-.73218-36.83272,9.98956-8.70487,10.63601-9.82647,26.03413-2.69719,37.80038,7.10089,11.7194,21.09936,17.86867,34.53735,15.21046,13.3188-2.63463,23.9344-13.69029,26.00756-27.11055,.26076-1.68797,.38692-3.3884,.39597-5.09603,.00256-.48269-.74744-.48326-.75,0Z"></path><path d="M370.18213,356.21287c5.62797,4.42424,9.76014,10.53985,11.74136,17.42082,.1333,.46296,.85723,.26608,.72321-.19938-2.01409-6.99514-6.21014-13.25197-11.93424-17.75178-.37532-.29505-.90966,.23213-.53033,.53033h0Z" style="fill:#263238;"></path></g><path d="M321.3986,352.2238c-.5174-.6416-1.8109-1.9454-1.1068-6.5818,.704-4.6364-5.1953-6.1904-5.1953-6.1904l-7.8313,1.6741v7.1026l10.0878,23.1059,3.2695-3.4646s8.5369-1.4229,9.8304-4.6565c1.2934-3.2337-8.53689-10.3477-9.0543-10.9893Z" style="opacity:.5;"></path><circle cx="323.25437" cy="397.61092" r="9.41079" transform="translate(-186.47437 345.0329) rotate(-45)" style="fill:#fff; opacity:.3;"></circle><path d="M369.49539,293.1721s-3.7318-5.7892-20.2546-5.4587c-16.5227,.3305-48.8374,.4257-53.46379,10.6698-4.6264,10.2441,2.0279,53.0437,3.0192,53.0437,.9914,0,10.3419-2.4085,11.3333-3.0695,.9913-.6609,.4287-36.3711,2.125-38.0135,2.4348-2.3575,38.5721,7.4118,47.8248,.4722,9.2528-6.9395,9.4161-17.644,9.4161-17.644Z" style="fill:#fdad6d;"></path><path d="M312.2545,310.3439s-1.4686-2.4204-3.7791-3.8067c0,0,5.448-.5001,7.9456,3.5391,0,0-3.8344-.5953-4.1665,.2676Z" style="opacity:.2;"></path><path d="M297.0331,361.7282c-.228,.2766,.2281,10.3116,.7982,11.3379,.5702,1.0262,2.6228,2.9648,3.8772,2.0525,1.2543-.9122,1.3684-1.8245,1.3684-1.8245,0,0,2.0526,3.0789,4.6753,.4561,0,0,4.3333,1.9386,5.1315-1.3683,0,0,3.6491,2.2806,4.9034,.114,1.2544-2.1666-.5701-11.5174-.5701-11.5174,0,0,.9039,.2966,4.553,.8667,3.649,.5702,5.94739,.1614,3.21059-2.2333s-2.8602-3.1947-5.0268-4.5631c-2.1667-1.3684-7.5262-3.3532-7.5262-3.3532,0,0,2.7257-6.555,.5025-7.7127s-20.2178,1.263-18.0512,5.4822l2.8027,5.2673-.6485,6.9958Z" style="fill:#05B2DC;"></path><path d="M298.09949,354.7937c4.59903-1.5256,9.40137-2.36581,14.19621-2.9918,.47183-.0616,.47797-.8124,0-.75-4.8622,.63479-9.73126,1.47133-14.39559,3.0186-.45592,.15124-.26056,.87578,.19938,.72321h0Z" style="fill:#263238;"></path><path d="M317.7146,361.74551c-.50551-1.48892-1.01111-2.97781-1.5167-4.4667-.15435-.45453-.87901-.25944-.72321,.19938,.5056,1.48889,1.01119,2.97778,1.5167,4.4667,.15432,.45454,.87899,.25944,.72321-.19938h0Z" style="fill:#263238;"></path><path d="M313.6206,372.61493c-.42519-.85221-.61083-1.80107-.5615-2.75053,.01052-.20246-.17988-.375-.375-.375-.21182,0-.36445,.17193-.375,.375-.05625,1.08274,.18061,2.16042,.6639,3.12907,.0904,.18119,.34653,.23194,.51307,.13453,.18451-.10792,.22527-.33121,.13453-.51307h0Z" style="fill:#263238;"></path><path d="M308.4259,374.00023c-.54033-.99581-.80666-2.11323-.7837-3.24523,.00979-.48281-.74021-.48277-.75,0-.02561,1.26284,.28406,2.51422,.8861,3.62377,.23027,.42437,.87807,.0462,.6476-.37854h0Z" style="fill:#263238;"></path><path d="M303.3279,373.74433c-.47339-.87931-.73194-1.85935-.7559-2.85753-.01156-.48181-.76161-.48361-.75,0,.02717,1.13178,.32173,2.23941,.85829,3.23607,.22888,.42514,.87662,.04685,.6476-.37854h0Z" style="fill:#263238;"></path></g></g></svg>
